<svg xmlns="http://www.w3.org/2000/svg" viewBox="0 0 395 500"><g fill="none" stroke-width="2"><path stroke="#bdbebc" d="M131.51 238.71q.8-2.17-1.72-1.46" vector-effect="non-scaling-stroke"/><path stroke="gray" d="M129.79 237.25q-2.53-3.04-5.01-.32a.82.59-37.2 0 0-.22.73q.13.4.58.13" vector-effect="non-scaling-stroke"/><path stroke="#bdbebc" d="m125.14 237.79.15.46" vector-effect="non-scaling-stroke"/><path stroke="gray" d="M125.29 238.25c-1.04 1.07-2.05 1.96-2.34 3.54q-1.32 7.33-4.72 13.89-.41.8.46.48 2.28-.84 3.04-3.16.81-2.49 1.21-.24l1.1 6.23a1.34.56-35.9 0 1-.59.97l-4.04 3.46q-1.96 1.68.55.96c2.03-.58 5.48-3.05 6.03 1.07.63 4.61-7.44 15.64-10.53 19.13a.92.52-46.2 0 0-.24.94l2.56 3.21q.29.36-.09.38c-6.25.28-2.84 2.63-1.03 5.03a1.19.51 46.2 0 1 .31.83q-.22 1.15-1.18 1.57a1.01.75 54.2 0 1-1.01-.32l-2.74-3.01a.64.63 40 0 0-1.01.08q-2.37 3.89-3.74 8.22a.66.6-69.4 0 0 .31.77c1.02.46 3.01-4.36 4.57-4.84 2.11-.64 2.18 1.76 1.43 3.09q-1.97 3.49-4.55 6.56a1.8 1.79 68.7 0 0-.39.89c-.53 3.92-5.36 32.97-6.92 32.9a.6.43-82.5 0 1-.37-.68q.64-3.86 1.37-7.7c.25-1.29-.41-1.7-.89-.58q-1.77 4.09-2.45 8.58a1.4.66 88.5 0 1-.35.8q-3.32 2.85-3.92 7.24-.05.39-.38.84-1.87 2.6-2.38 5.88-.08.48.29.14 2.39-2.17 3.07.31a1.27 1.05-39.8 0 1-.17.92c-2.53 3.94-7.34 9.22-5.11 14.21a.61.61-30 0 1-.2.74c-1.99 1.46-2.88 2.38-3.13 5.09-.79 8.81-8.87 13.17-15.07 17.96-1.77 1.37-1.19 3.37 1.11 1.83 2.25-1.5 4.89-3.87 7.27-4.98q4.7-2.18.55 2.02-5.48 5.56-10.54 11.51c-3.13 3.67-4.91 13.18-10.22 12.97a1.24 1.21 23.8 0 0-.89.33q-3.81 3.57-3.97 8.75a1.99 1.6-33 0 1-.32.97l-4.85 7.44a1.71 1.23-39.6 0 0-.28 1.07q.48 3.06 3.17 4.66a1.07 1.01-66.2 0 0 1.5-.64c2.86-8.91 7.33-17.64 15.84-22.31 4.1-2.24-.1 5.58-.77 6.95-1.43 2.94.18 3.43 2.34 4.71a1.37 1.37 39.3 0 1 .22 2.19c-3.41 3.08-7.87 6.9-3.74 11.71.27.31.44.99.22 1.24a.92.5 30.7 0 1-.95-.04l-1.98-1.04a1.32.84 39.7 0 0-1-.13q-.73.3-.1 1.2c2.83 4.03 6.12 3.23 7.55-1.13q3.78-11.51 7.15-23.79a1.24 1.24-72 0 1 1.63-.83c6.3 2.42 7.05 10.56 8.05 16.23q.35 2.01-.54 3.7l-5.27 10.02a.85.43-63.1 0 1-.74.54l-2.72-1.06q-.86-.34-.65.21l1.23 3.32a.91.72 60.2 0 1-.14.91q-5.29 4.94-5.35 12.14-.01.41-.29.88c-3.37 5.76.66 10.67-3.57 15.36a.8.74 26.2 0 0 .48 1.24l2.83.62a.68.54-68.6 0 1 .28.92l-2.61 5.16a.93.89-76.1 0 0 .77 1.35l50.25-.36a1.45 1.36 24 0 0 .89-.31q5.1-4.08 10.35-7.97c5.19-3.85 9.97-9.18 14.32-12.64 13.61-10.83 21.55-18.3 30.17-29.96q2.04-2.76 4.46-3.7 9.57-3.71 16.65-11.02a.53.38 55.3 0 1 .69.25c7.52 13.21 15.67 26.21 22.26 39.9a.85.76 75.8 0 0 .71.48h1a.51.5 0 0 1 .51.5l.05 5.19a2.5 2.07 12.5 0 0 1.58 2.04c9.02 3.59 18.92 3.97 28.33 3.78a1.9 1.6 69.2 0 1 1.46.81l8.86 12.64a1.28.72-8.7 0 0 .96.36l45.26.2q1.44.01.59-1.29-7.73-11.94-13.25-25.01c-.15-.35-2.24-11.96-3.29-5.37q-.88 5.5-4.59 8.32c-4.04 3.08 3.68-10.91-4.05-3.01a.3.3-31.4 0 1-.5-.12c-1.8-5.59-5.27-10.01-6.95-15.46q-.4-1.3-1.7-3.21c-9.52-14.06 19.74-5.22 12.85-14.88a.86.84-50.3 0 1-.07-.85c3.5-7.28-9.33.98-10.35 1.49a1.47 1.14-44.5 0 1-.95.11q-7.69-2.17-14.99-5.43a1.22 1.07 8.3 0 1-.66-.77c-.56-2.59 4.98-1.66 6.83-1.35 6.32 1.07 16.99.66 18.09-7.28a.46.35-6.3 0 0-.58-.35q-10.76 2.72-21.94 2-.4-.02-.02-.27 8.21-5.41 18-4.5a1.59 1.01-47.9 0 0 .83-.23q.59-.35.38-1a1.09.2 11.9 0 0-.92-.38l-3.78-.89q-.85-.2-.26-.81l2.22-2.28a1.19.33-44.3 0 0 .56-.96l-1.31-2.94a.7.36-37.7 0 0-.86.16c-5.3 4.66-12.16 10.34-19.68 9.61-1.15-.11-1.14-.91 0-1.22 1.93-.53 4.33-1.51 5.33-3.36q2.23-4.15-1.59-1.82a1.1.53-37.4 0 1-.91.19c-.78-.39 5.31-13.82 5.22-5.88-.07 6.27 9.99-1.28 12.2-2.92.49-.37.95-1.24.32-1.63a1.2.71-31.8 0 0-.93.02c-1.19.5-8.73 4.22-5.51-1.49q2.92-5.17-2.04-8.91a.79.79-50.9 0 0-1.06.11q-3.68 4.11-7.62 7.89-2.79 2.69-3.8-.54a1.04.99-37.7 0 1 .13-.84l3.05-4.72q1.2-1.85-1.1-2.4c-5.12-1.21 4.19-7.82 5.67-8.92a1 .44-30.9 0 0 .49-.69q-.27-2.74 1.49-4.64a1.49.57 3.2 0 1 .97-.31c9.33-.54 1.64-3.58-.12-5.38a1.26 1.23-67.6 0 1-.35-.87q-.01-3.03.01-6.06c.01-2.04.96-4.08.57-6.43a1.2 1.16 60.1 0 1 .24-.94q.35-.44.93-.31a.89.82 24 0 0 .87-.3q.55-.7.04-1.88-2.95-6.76-9.69-6.98-1.23-.04-1.84-1.65a.77.71-32.5 0 1 .21-.8q1.8-1.64 4.68-5.62c3.75-5.16 5.82 8.63 6.23 10.49.22 1.02 1.13.15 1.26-.35 1.21-4.94 3.48-12.76 1.16-17.51a.92.87 51.4 0 1 .08-.94q1.8-2.36 1.19-5.45-.3-1.53-.88-.18-1.34 3.11-3.72 5.49a.98.88 38.6 0 0 .24 1.42q1.56 1.03 1.41 1.84a.64.34 14.8 0 1-.74.17l-1.74-.53a1.21.44-39.3 0 0-.89.31c-9.42 6.49-19.42 13.26-30.21 17.19q-7.25 2.65-14.21 6.04c-3.64 1.77-5.79 5.47-8.98 7.25q-21.39 11.97-45.24 5.58-.59-.15-.44.38c.27.94 1.51.95 1.33 2.24a.76.64-1.2 0 1-.63.56q-4.31.64-8.3-1.27a.9.63-83.8 0 0-.88 1l.17 3.01a.47.43 11.4 0 1-.66.4l-6.75-2.97a1.38 1.35-67.4 0 1-.7-1.76l1.14-2.91a.94.85-78.3 0 0-.75-1.28h-6.26a1.33.74-10.3 0 1-.92-.31c-1.8-2.09 3.34-.94 3.75-.79 1.66.62 2.44-.91.4-1.12-1.16-.13-4.8-.64-3.51-2.65 1.49-2.32 10.39-2.05 12.81-1.71q.4.06.88.4c1.72 1.23 2.91-.94 3.93-1.95a.48.45-38.2 0 1 .74.07q.54.94 1.41 1.59a.86.54-32.9 0 0 .76-.01l2.24-1.03a1.24.42 30 0 1 .97.19c4.92 2.31 10.76 2.45 15.84 4.03a1.49 1.45 43.8 0 0 .93-.01c1.77-.64 10.49-3.07 8.11-6.15a.82.55 54.5 0 0-.86-.32l-2.72 1.55a1.2.99-48.7 0 1-.81.13c-2.24-.58-.75-3.45.12-5.21a1.12.69-53.9 0 0 .07-.92q-.62-1.07-3.68.18a1.79 1.77 43.2 0 1-1.3.03c-3.66-1.31-6.87-1.83-11-.81q-4.71 1.16-9.57.96c-3.86-.16-6.56 1.31-9.89 2.78a1.85 1.79 35.4 0 1-.97.15q-8.53-1.09-14.4 5.09a1.04.67-37.7 0 0-.31.87q.1.31.42.54a.8.35-54.2 0 1-.19.86c-.22.29-3.95 7.83-3.82 3.83.21-6.36 4.19-9.64 7.86-14.46 1.02-1.33 3.14-8.4 3.42-8.4a.61.47-88.3 0 1 .46.64q-.17 3.06-1.22 5.96c-.41 1.15-.32 2.72 1.43 1.05q1.6-1.53 2.06-4.83a.66.63-89.2 0 1 .55-.56q9.74-1.29 19.31-3.33c8.14-1.73 13.59 1.97 20.3 6.42a.85.8 45.8 0 0 .87.04c5.15-3.06-9.16-9.66-12.78-11.24-5.94-2.6-14.6-4.34-22.71-6.77q-1.3-.38-.28-1.28c1.77-1.56 3.23-3.21 5.76-3.45 3.1-.29 6.67-.13 9.39-.61 8.24-1.45 14.58-5.65 21.18-10.52q.77-.57 3.66-1.94c3.33-1.59 4-5.05 5.5-7.2 3.21-4.6 7.21-8.13 12.33-7.96 4.77.16-8.35 10.4-9.14 11.12a1.14.62-33.9 0 0-.43.83q.25 1.51 1.81 1.75a1.52.98-49.1 0 0 .96-.28l6.32-4.45a2.86 2.24-45.2 0 1 2.72-.34q3.72 2.01 7.74.91a1.59 1.46-17.1 0 0 1.12-1.92q-.71-2.07-2.18-3.61a.49.43 33.6 0 0-.79.11q-.27.88-.14 1.82a.52.46-4.4 0 1-.51.53q-1.68.02-2.68-1.37a.76.6 50.2 0 1-.02-.86l2.16-2.35a1.37.47-41.9 0 0 .5-.89q-.37-4.79-3.87-1.69a1.02.93 64.5 0 1-1.56-.63q-.39-1.83-.26-3.76.2-3.15 2.81-.8c2.36 2.13 6.72 2.65 9.68 3.64a.86.82 31.6 0 0 .86-.18c4.75-4.62-6.28-8.98-2.66-10.29a1.34 1.28-38.4 0 1 1.09.1l3.96 2.35q2.14 1.26 3.5-.86c7.71-11.92 10.95-25.72 15.21-39.05.27-.85.94-1.61 1.51-2.28a.96.67-40 0 0 .23-.85l-1.53-3.7a.61.59 63.8 0 1 .24-.75c.81-.5 4.89-3.69 2.38-4.01a1.69.72-39.7 0 0-.98.29l-1.58.91a1.2.4 33.2 0 1-1.01-.27q-3.79-2.17-7.02.75a1.53 1.45 44.5 0 0 .08 2.23l2.54 2.22a.94.83-33.6 0 1-.39 1.47c-2.11.8-10.54 3.35-9.49-2 .45-2.33 3.49-3.72 5.5-4.72q1.61-.8.05-1.64-3.04-1.65-1.49-4.75.33-.65.74-.02l2.74 4.23a.92.58-22 0 0 .94.17q2.27-.72 3.52-2.73a1.02.72 47.3 0 0-.13-.98q-1.92-2.71-2.63-5.94a1.13.35 78.8 0 0-.52-.96l-1.43-.05a.62.37-79.4 0 1-.27-.74c3.74-14.72 7.51-29.81 8.11-45.19q.09-2.39-2.33-2.52l-36.25-1.9a1 .9-4.2 0 0-1.05 1.1l2.64 11.67a.73.52-2.9 0 0 .66.42l21.5 1.09a.64.57 86.7 0 1 .54.54q.94 6.03-.79 11.68-1.7 5.5-1.97 6.85c-2.42 11.88-6.17 23.55-10.42 37.17-2.2 7.05-4.23-2.11-5.55 1.05-9.15 21.89-23.51 48.1-42.23 64.2-4.55 3.91-10.97 7.1-16.36 10.76-1.73 1.17-10.88 11.12-12.24 9.64a.56.45-44.2 0 1 .09-.71q.64-.62.5-1.31a.51.47-12 0 0-.59-.35q-3.34.71-6.29 2.49a1.58 1.08-88.9 0 0-.57.8c-.96 3.12-2.91 5.67-3.43 8.62q-.59 3.44-.53 6.96.01.77.66.24l4-3.24a.83.42-36 0 1 1.01-.16q.24.5.23 1.11-.05 2.51-2.18 4.1c-6.35 4.73-6.2 9.13-8.31 16.08q-.1.34-.52.81-.95 1.08.17 3.23a1.44 1.19-26.7 0 1-.76 1.73q-3.65 1.8-3.13 6.03a.81.63 3.9 0 0 .64.57q2.99.57 1.01 2.62-7.56 7.87-13.4 15.13c-8.13 10.12-15.24 22.92-21.91 34.86q-.66 1.18-1-.13c-1.2-4.65-1.89-9.46 1.07-13.8q2.79-4.08 5.09-8.46c1.47-2.79 2.35-6.52 4-9.67q1.01-1.91 1.71-4.55c1.03-3.83 3.52-6.5 4.82-9.9 5.68-14.81 16.06-31.99 21.97-43.05q11.22-21.02 17.95-44.13a.96.95 19.9 0 1 1.31-.61q3.54 1.58 1.86-2.76-2.41-6.21-1.72-12.82a.53.46-82.1 0 1 .55-.48c1.46.26 2.49 12.51 4.46 2.07.13-.7-.16-1.51.18-2.29a.9.83 9.7 0 1 .75-.49c5.07-.3-2.24 9.97-3.13 11.63q-.65 1.18.69 1.03c3.92-.45 4.5-6.06 7.65-8.76q.5-.42.42.24-1.93 16.93-1.72 33.99a.36.32-10.4 0 0 .47.29c3.48-1.2 5.72-3.33 5.82-7.31q.32-12.99.65-25.98.02-1.03.94-.82a.62.41-81.4 0 1 .3.65q-.32 2.73 2.14 4.04a.54.41-62.5 0 0 .62-.29c.41-.8 1.44-3.25 2.77-2.3a1.27.85-82.4 0 1 .4.82c.65 6.25 4.8-3.99 5.02 1.45a1.97 1.61 63.1 0 1-.21.95l-1.07 1.94a.45.41-69.3 0 0 .26.66q1.64.26 3.06 1.16a.86.8 43.4 0 0 .92.01c.97-.68 3.6-2.73 2.45-4.13a.83.51 42.7 0 1-.2-.71q1.48-3.38 5.05-3.25a.74.72 2.4 0 0 .77-.69q.11-2.66-2.48-2.21-.98.16-.46-.73.51-.87 1.46-1.3a1.15.46 40.4 0 1 .92.31q.83.6 1.81.71a1.01.47-74.6 0 0 .67-.79l1.75-5.64q.22-.7.19-.86-.98-4.66 2.99-6.84a1.47 1.41-20.5 0 0 .74-1.54c-1.24-6.05.9-6.17 4.79-9.38a.83.68-34.9 0 0 .26-.92q-1.23-2.35.8-4.15a1.18.09-82.1 0 0 .23-1.04q.51-3.4 1.12-6.81c.96-5.36 3.51-10.18 4.4-16.1a2.65 2.24 24.9 0 0-1.07-2.31q-2.21-1.65-3.38-4.13a1.58.71-66.4 0 1-.01-1c1.19-4.71 3.66-10.3 3.09-16.03a1.15.72-86.4 0 0-.48-.88q-2.31-1.07-3.73 1a1.03.78 13.7 0 1-.8.35c-7.12-.13-14.29-1.97-19.34 4.54q-6.26 8.08-13.12 15.67c-1.64 1.81-1.75.52-1.27-1.28a4.27 3.83 78.6 0 1 1.13-1.92q6.19-5.79 11.02-12.75a.7.66-67.1 0 0-.4-1.07q-1.85-.34-2.76-1.95a.82.77 49 0 0-1.33-.14c-.75 1.05-4.09 8.07-4.23 8.05a.63.51-86.5 0 1-.46-.65c.2-5.8 1.63-11.12 5.31-15.73.82-1.02 4.23-4.86 4.07-5.96q-.07-.53-.5-.15-8.53 7.67-13.18 18.12c-.27.6-2.81 2.91-1.66-.16.94-2.52 4.08-6.04 5.67-8.41a1.04.76-44.1 0 0 .15-.89c-.96-2.24-8.37 12.44-8.82 12.26a.7.52-71.7 0 1-.26-.78q5.05-17.55 12.86-34.07.19-.41-.14-.43a.73.43-57.4 0 0-.47.24q-3.55 3.68-5.15 7.94c-1.51 4.01-5.95 18.82-8.8 20.89q-.42.3-.38-.22.84-11.66-2.89-22.62-1.79-5.27-1.9-7.76c-.62-13.99 13.63-25.07 25.71-29.61q15.57-5.85 32.38-3.34 1.03.15.35-.67-2.59-3.14-6.2-5.05a.81.56 26.5 0 1-.45-.82q.28-.71.27-1.47a1 .59 12.4 0 0-.72-.67c-.66-.2-7.45-.31-4.36-1.1 5.83-1.48 15 2.2 19.18 3.53a.77.43 18.3 0 0 .83-.16q.12-.3-.48-.65c-12.63-7.53-26.11-7.24-38.42.38q-6.79 4.2-13.56 8.43-1 .63-.98-.51.05-2.09-.73-4.02a.96.94-7.4 0 0-.76-.57l-3.26-.39a1.03.91 80.5 0 1-.78-.63c-1.91-4.58 8.5-1.81 10.72-5.55q1.12-1.89-1.18-1.84-1.96.04-3.71-.78a.86.83-72.7 0 1-.46-.91q.56-3.17 2.44-5.78a1.24.56 9.7 0 1 .99-.26q5.95.42 11.27-3.51 3.2-2.36 7.74-1.64a1.65 1.42-13.1 0 1 .92.48q3.26 3.6 7.21.57a1.22 1.1-52.6 0 1 1.09-.2q3.24 1.19 5.44 3.84.31.38.45-.25c.6-2.7-.8-5.81-1.55-8.4-2.89-10.02-5.21-33.89-19.41-34.85q-.46-.03-.17-.4c2.85-3.77-5.99-8.13-9.35-5.9a.82.74-41.6 0 1-.91-.01q-1.54-1.23-3.5-1a.51.44-16.8 0 0-.42.67q1.28 2.3-1 1.22a1.31.66 84.1 0 1-.52-.81c-.44-1.61-5.95-2.06-7.33-1.98a1.93.91-49.3 0 0-.94.42l-4.18 3.11a1.8.94-50 0 1-.92.38q-6.59.08-10.28 5.36a1.42.64-.8 0 1-.9.42c-5.84.88-7.07 7.5-8.44 11.97-.91 2.98.58 5.82-.07 8.22q-2.45 9 1.21 17.39c.8 1.83.56 3.24.14 5.04a1.12 1.03 10.2 0 0 .97 1.28l3.94.51a1.43.73-2.2 0 1 .91.42q2 2.84-.35 5.47a.58.58 38.2 0 1-.76.09l-2.23-1.52a.65.39 34.2 0 0-.76-.04q-.33.49.24 1.08 4.34 4.5 3.68 10.83a1.16.84 30 0 0 .38.85l7.99 7.54q1.83 1.73 0 3.63-8.42 8.76-16.43 16.61c-9.5 9.29-14.11 24.62-14.68 37.42-.27 6.03 1.58 12.98 2.4 19.43q.53 4.18 2.7-2.71.27-.85.9-1.48c.36-.36 1.21 1 1.06 1.76q-1.18 6.15-5.97 10.3c-.9.78-.63 1.12.64.75 5.28-1.53 11.14.2 16.56.53a1.12.88-10.4 0 1 .8.42q.63.94-1.08.57-4.29-.92-8.73-.96a.95.86-72.3 0 0-.76.44c-.92 1.48-3.92 1.99-1.46 4.1q1.36 1.16 1.61-.58.37-2.56 2.89-2.78a.8.19-6.8 0 1 .76.09l1.2 3.03a1.03.31-43.8 0 1-.46.81q-.79.83-1.88.55-.74-.19-.15-.77 1.79-1.77-.49-2.16a.98.36-70.3 0 0-.63.75l-.84 2.14a.8.59 34.5 0 0 .26.76q1.18 1.08-1.07 1.13" vector-effect="non-scaling-stroke"/><path stroke="#3d3e3d" d="M125.29 238.25q3.11-.58 6.22.46m-1.72-1.46q-2.43-.22-4.65.54" vector-effect="non-scaling-stroke"/><path stroke="gray" d="M226.5 138.25c1.38 1.14 8.94 4.82 8.88.43a.55.53 88.9 0 0-.54-.54l-8.34.11m0 0q-1.64-2.56-3.23-.74a1.07.92-33.7 0 0-.25.9c.38 1.49 2.49-.13 3.48-.16m-15.84 11.62q-.78-1.79.63-.43 4.22 4.1 8.24 8.34c.5.53 3.93 3.29 2.16-.45-1.84-3.89-5.82-13.04-9.92-14.64q-1.21-.47-.45.49 3.21 4.12 5.45 8.81.34.72-.23.67c-1.23-.11-10.21-12.56-12.38-9.31a.77.7 44.3 0 0 .05.84q4.85 6.68 8.5 14.04c.4.8 2.04 2.01 2.49.56a1.23.95 41.7 0 0-.17-.91q-2.72-4.23-4.37-8.01m13.79-5.3q-1.83-1.98-1.58.69l1.24 13.48a1.51.63-87.6 0 0 .36.97c1.71 1.44 1.86-3.28 1.88-3.82a.62.57 87.9 0 1 .5-.59c3.13-.4 4.72 2.08 6.67 4.92.53.78 1.55 1.11 1.92.01a1.38 1.18 41.8 0 0-.14-1.03q-4.64-7.9-10.85-14.63m20.24 16.44c.73-1.63-4.47-2.08-5.17-2.1a.69.67-7.5 0 1-.64-.48c-.57-2.02-2.92-13.09-4.92-12.95a.53.41-8.2 0 0-.51.53l4.04 14.2a1.21.53 13.6 0 0 .76.58q2.78 1 5.74.67a.92.71 4.9 0 0 .7-.45m-35.537-1.563a9.9 5.15 40.1 0 0-4.256-10.316 9.9 5.15 40.1 0 0-10.89-2.438 9.9 5.15 40.1 0 0 4.256 10.316 9.9 5.15 40.1 0 0 10.89 2.438m42.157 3.803c10.86-.14 3.55-15.66-5.38-15.71a1 1 86.1 0 0-1 1.15q.99 6.8 2.12 13 .19 1.07 1.58 1.33 1.33.25 2.68.23m-60.66-2.09c-1.24-.83-.47-1.75.8-1.27q4.42 1.65 8.96 2.97c2.56.74 3.24-.82.71-1.84q-3.57-1.43-7.33-2.32a.68.68-74.5 0 1-.49-.87q.6-1.85-1.05-3.41-4.35-4.12-8.91-.8c-.93.68-2.74 1.45-3.35 2.67a.85.85 28.2 0 0 .34 1.12q7.41 4.18 13.68 9.34 1.06.88 1.75-.03a.71.62 46.3 0 0-.04-.82q-2.2-2.79-5.07-4.74m76.305 6.288a7.27 4.51 57.6 0 0-.087-8.555 7.27 4.51 57.6 0 0-7.704-3.721 7.27 4.51 57.6 0 0 .088 8.555 7.27 4.51 57.6 0 0 7.703 3.721m22.205 49.562-.18-3.5q-.14-2.71-1.51-2.51-1.54.23-2.79-.4a1.33.69 85.4 0 1-.52-.84q-.57-2.25-2.72-3.27-.47-.23-.2.23 3.83 6.41 1.96 13.72-.29 1.09.66 4.28.17.55-.32.32c-.66-.33-1.16-1.23-1.2-2.02q-.18-3.36-1.63-6.27c-.27-.55-1.41-1.22-1.65-.29a1.37.78 47.3 0 0 .21.91c.67 1.11 2.54 5 2.11 6.17q-.35.95-.8-.2c-.78-2-2.56-8.5-4.59-8.99a.76.72-64.9 0 0-.78.31c-1.82 2.57.45 6.72.91 9.36.68 3.89-1.22 5.66 1.3 9.7q1.06 1.71 2.33 4.24c3.17 6.36-1.43 6.63-1.12 11.73q.36 6.12.57 12.24a1.4.86 74.8 0 1-.27.91c-1.29 1.37-1.27-3.97-1.19-5.55q.03-.56-.19-1.06l-2.38-5.45a1.6.52-67.3 0 1 .09-1.09q1.37-4.52-2.7-7.07a.59.56-60 0 0-.81.24q-3.25 6.01-3.22 12.39.07 18.02 2.9 35.81.73 4.56 3.63 9.23c3.23 5.21 1.1-4.95 1.01-5.32a1.51 1.42 52.3 0 1 .09-.93c2.28-5 4.94-14.09 3.9-19.49-.87-4.5.44-9.3 1.61-13.63q.54-2.01 1.9-.44 10.26 11.89 19.82 24.61 2.41 3.21 3.53 5.48 8.78 17.83 16.01 36.33c1.47 3.78 3.31 8.26 4.98 10.93 6.1 9.77 10.39 20.21 16.23 30 3.91 6.56 3.21 13.26 3.1 20.29-.16 9.7 10.68 13.14 6.97 24.22-1.61 4.8-7.34 15.45-1.47 18.58a.55.55 21 0 0 .79-.35q2.61-10.72 6.58-20.38c.2-.5.85-.82.87.06.11 4.9-2.11 21.63 3.62 23.68a1.08 1.06-77.9 0 0 1.41-.93l1.21-13.95a3.33 2.1 80.5 0 1 .81-1.94q.77-.73 1.28-.77a.62.43 89 0 1 .46.64c-.08 4.74-2.16 16.34 5.13 16.39a.51.49-89.4 0 0 .5-.51q-.08-8.03-.32-16.07c-.17-5.34-1.71-10.73-2.27-16.31q-.24-2.44-1.35-4.7-4.2-8.62-5.73-18.11a2.05.95-87 0 0-.4-1q-2.19-2.55-2.88-5.86a1.74.51 41.3 0 0-.55-.87q-1.38-1.54-1.73-3.37c-1.73-9.36-3.74-20.53-4.74-32.1-.55-6.29-1.11-15.08-4.08-19.48-2.21-3.28-3.54-6.59-5.16-10.03-.3-.64-.31-3.37.81-1.12q.84 1.67 1.98 3.21.42.55.52.18c.13-.45-7.64-18.48-8.54-20.28q-.21-.42-.19-.95c.12-3.07-3.63-7.66-5.31-10.36a1.39 1.17 78.6 0 0-.74-.59c-5.57-1.61 6.51 16.82 7.51 18.33q.66.99.88 2.16.37 1.96-.21 2.14a.93.48 60.3 0 1-.77-.5c-3.24-4.96-5.88-9.89-10.49-13.76-4.53-3.81-7.49-11.94-9.43-17.42-1.13-3.22-2.74-5.34-4.52-8.1-2.98-4.6-3.98-8.94-4.48-14.16a.7.62-85.5 0 1 .79-.77l1.92.61a.36.35 5.6 0 0 .47-.37c-.8-6.84-6.98-1.94-8.74-6.94q-.2-.56-.51-.14-.29.38-.2.92a.91.39 78.6 0 1-.18.86q-.38.19-.95-.66a3.15 1.53 43 0 1-.59-1.53l-.07-1.91q-.02-.6.67.17 1.37 1.52 2.09-.59a1.26.3-66.8 0 0 .15-.87q-.59-2.03 1.13-2.6a1.04.46 48.9 0 1 .83.39c.09.1 5.19 4.17 3.55 1.95q-2.2-2.99-2.3-6.77-.04-1.67-1.2-2.88c-3.08-3.19-3.37-6.66-4.87-10.16-1.99-4.63-5.49-8.78-6.38-13.26-.83-4.14-1.63-11.4-5.88-13.44q-.46-.22-.38.28 1.63 10.17 1.85 20.47c.03 1.55-.67.37-.75.02q-1.17-5.1-2.31-6.59c-.89-1.18-1-.33-.77.35 1.79 5.42 2.68 11.87-.97 16.76q-.42.57-.45-.03m-159.21 14.38q-2.29-.43-4.37.67-1.54.82.16.95 1.74.14 3.07-.96a1 .8-52.3 0 1 .87-.21q.79.28.95.08a.68.29 14.6 0 0-.68-.53" vector-effect="non-scaling-stroke"/><path stroke="gray" d="M310.12 234.08c1.59-4.15-4.02.22.06 2.44q.91.49.59-.28l-.52-1.24a1.36.56 59.5 0 1-.13-.92m-60.68 77.85q-1.11.28-1.44 1.31a1.82 1.49-13.5 0 1-.63.83c-1.14.81-18.98 15.31-15.07 17.77a.66.58-52.8 0 0 .79-.16c6.39-7.13 13.2-5.81 21.91-5.97q2.96-.05 2.01-2.72-1.48-4.16-3.42-8.14-1.97-4.04 1.67-5.27c1.28-.43 2.28.13 3.36.39a1.54 1.53 10.2 0 1 1.17 1.67q-.53 4.54 1.5 5.59a.45.42 18.3 0 0 .65-.3l.27-1.95q.2-1.35.8.05l1.63 3.8a1.79 1.72 5.5 0 0 .66.77c.82.53 6.33 4.9 8.14 3.47a.68.52 56.1 0 0 .05-.82l-2.19-3.56a.89.62-39.8 0 1 .26-.93q2.66-2.53-.84-3.66a1.32 1.19-1.1 0 1-.77-.67q-.52-1.2 2.03-1.21 1.17 0 .31-1.04l-1.46-1.76a1.13.96-61.1 0 1-.19-.93q.69-2.91-.12-5.73a.75.59-29.3 0 1 .29-.7l.71-.54a.89.24 45.8 0 0-.46-.83l-1.49-1.51a1.47.53-85.2 0 1-.27-1c-.17-5.46.06-10.44-1.25-16q-1.49-6.3-1.66-12.81c-.06-2.15 1.06-3.36.66-5.58q-1.26-6.98-2.01-14.07a1.05.32 85.7 0 0-.35-.91q-.89-.25-1.44.43a1.34.84 72.3 0 0-.21.83q.15 2.32-.31 3.42-2.25 5.29-1.71 11.03.04.43-.19 1-1.4 3.5-.75 7.23a1.88.88-55.2 0 1-.17.98c-2.49 6.2-2.3 13.09-2.82 19.68-.31 3.94-3.41 5.89-4.3 9.64q-.55 2.31-.99 4.69a.59.38 7.1 0 1-.62.3q-3.95-.46-1.24 2.57a.86.79-26.7 0 1-.5 1.32" vector-effect="non-scaling-stroke"/><path stroke="gray" d="M252.618 289.56a1.5 1.27 76.6 0 0 .887-1.754 1.5 1.27 76.6 0 0-1.583-1.165 1.5 1.27 76.6 0 0-.887 1.753 1.5 1.27 76.6 0 0 1.583 1.165m-5.358.361q2.91 1.4 2.77-1.37a.68.64-7 0 0-.8-.59q-1.32.25-2.3 1.23a.58.39 31.5 0 0 .33.73m-65.88.16c-1.37-2.78-3.47.46-3.18 2.18a.39.38-20.6 0 0 .59.26l2.41-1.56a.73.62 61.1 0 0 .18-.88m23.06 20.87q2.37.68 1.19-1.36l-1.37-2.35a.96.83 70.9 0 0-.81-.47c-2.42.14-1.54 3.47.99 4.18" vector-effect="non-scaling-stroke"/><path stroke="gray" d="M194.2 317.52q14.61 3.52 29.6 2.17c3.74-.34 2.73-2.8.63-4.09-8.23-5.08-15.07-4.09-23.49-.96a1.55.79 34 0 1-1.04-.13q-4.41-1.93-6.1 2.83a.18.11 8.4 0 0 .18.15q.12.01.22.03m-.442 7.778a2.48 1.14 17.3 0 0-2.029-1.826 2.48 1.14 17.3 0 0-2.707.35 2.48 1.14 17.3 0 0 2.029 1.826 2.48 1.14 17.3 0 0 2.707-.35m3.682 11.262q10.35 1.86 12.95 2.42c1.12.24 1.51-.66.62-1.35-3.44-2.66-9.51-2.92-13.74-3.31a1.08.97 22.1 0 0-.86.31q-1.38 1.5 1.03 1.93m-.63 12.424a1.94 1.1 109.9 0 0 1.694-1.45 1.94 1.1 109.9 0 0-.374-2.198 1.94 1.1 109.9 0 0-1.694 1.45 1.94 1.1 109.9 0 0 .374 2.198m5.93 10.736q2.31.37 3.11-1.67a.93.36 37 0 0-.46-.75c-2.51-2.1.93-3.15 2.41-3.48a.62.37-13.2 0 0 .53-.51q-.06-.25-.6-.31-5.47-.56-7.66 4.16a2.02 1.58-89.3 0 1-.6.75c-1.51 1.04-6.08 2.17-4.09 4.82a.42.38-44.1 0 0 .63-.02q1.99-2.3 4.38-1.17c1.05.5 3.6 1.11 2.19-1.3q-.35-.61.16-.52m70.45 13.97c.16 4.44-2.9 5.77-5.64 8.41a.57.47-44.5 0 0-.08.75c.82.77 12.5-6.55 6.53-9.67a.56.55 12.6 0 0-.81.51m-226.7 27.04c-1.24 3.79 12.07 4.12 14.45-.05a.87.86-72.9 0 0-.68-1.29q-6.6-.51-13.06.82a1.02.7-1.6 0 0-.71.52m17.01.27a.46.42-54.3 0 0-.43.09c-4.13 3.72-7.44 9.29-10.08 12.57q-5.47 6.77-10.47 13.96a1.13.28-53.1 0 0-.39.92q.99 2.24.24 4.54-.57 1.74 1.1.9c4.6-2.3 5.27-5.9 7.86-9.17q5.4-6.81 11.37-13.12a3.13 2.94-25.4 0 0 .85-2.18q-.09-3.19 1.73-5.74a1.06.61 63 0 0 .04-.83q-.45-1.42-1.82-1.94m225.478 44.766a3.69 1.59 127.8 0 0 3.518-1.942 3.69 1.59 127.8 0 0 1.006-3.89 3.69 1.59 127.8 0 0-3.518 1.941 3.69 1.59 127.8 0 0-1.006 3.89M165.23 68.94q-.56 1.38.9 1.07c2.71-.58.64-4.86-.9-1.07m-16.65 38.22q-1.26-.56-2.02.39a.58.55 28.6 0 0 .28.88q1.9.66 3.33 2.15a.62.61 51.9 0 0 .77.1q.26-.16.24-.36-.27-2.13-2.6-3.16m11.179 28.48a2.1 1.25 91.4 0 0 1.3-2.07 2.1 1.25 91.4 0 0-1.198-2.13 2.1 1.25 91.4 0 0-1.3 2.07 2.1 1.25 91.4 0 0 1.198 2.13m79.701 47.39c-6.95.02-14.18-.68-21.21-1.03a1.14.58-2.9 0 1-.91-.41q-1.72-3.71-1.82-7.84a.47.45-89.5 0 1 .48-.49l33.5 1.99a.54.47 4.1 0 1 .5.5q-1.07 14.61-3.65 29.02a.44.33 90 0 0 .4.53c1.73-.51 3.89-27.2 4-29.84a1.79 1.62 3 0 0-1.68-1.69l-34.32-2.07a.86.81 84.1 0 0-.82 1.07l2.27 9.26a1.81 1.48-4.1 0 0 1.62 1.14l20.43.9a1.46 1.44-88 0 1 1.38 1.5c-.09 2.84-.83 6.26-.66 8.88q.26 4.04 1.17.2c.69-2.94.45-7.24.56-10.35a1.23 1.23-89.3 0 0-1.24-1.27" vector-effect="non-scaling-stroke"/><path stroke="gray" d="M236.253 207.146a3.4.54 102 0 0 1.235-3.214 3.4.54 102 0 0 .179-3.438 3.4.54 102 0 0-1.235 3.214 3.4.54 102 0 0-.179 3.438m-46.903-1.566q-6.28 9.94-13.66 19.15-2.03 2.52-1.79 3.48.24.97.84.27c3.11-3.61 15.64-18.46 15.73-22.56q.05-2.2-1.12-.34m7.084 2.066a.77.77 0 0 0-.16-1.078l-.032-.024a.77.77 0 0 0-1.077.16l-9.039 12.17a.77.77 0 0 0 .16 1.078l.032.024a.77.77 0 0 0 1.077-.16l9.039-12.17M143.97 235l-.51-1.2a.65.45-35.1 0 0-.9.01l-1.61 1.39a.39.38-29.7 0 1-.62-.16l-.53-1.58a.46.36 61.5 0 0-.64-.28q-1.19 1.17-1.61 2.84a.5.37 10.3 0 0 .45.48l5.48.81a.59.47 15.1 0 1 .51.69q-1.1 2.11-1.24 4.51a1 .99-68.4 0 0 .35.82q1.42 1.22 3.41 1.17a.38.37 75.4 0 0 .31-.55l-1.4-2.67a1.42.48-66.4 0 1 .09-1.03l7.69-23.76a1.46 1.34 30.2 0 0-.46-1.48q-1.68-1.43-3.02-1.68a.58.51-77.9 0 0-.6.44l-4.94 21.18q-.08.37-.21.05m54.22-20.06q-11.82 13.41-29.89 30.56c-.65.62-2.51 2.9-.01 2.65a1.63 1.39-65.7 0 0 .87-.41c10.55-9.94 21.96-19.95 30.33-31.85a1.4 1.12-35.7 0 0 .25-.9q-.19-1.59-1.55-.05" vector-effect="non-scaling-stroke"/><path stroke="gray" d="M140.86 238.71q-2.55-1.16-5.37-.32-.95.27 3.77 1.47.54.14 1.08.22c1.88.28 1.77-.79.52-1.37m49.798 4.768a1.44.9 60.1 0 0 .062-1.697 1.44.9 60.1 0 0-1.498-.8 1.44.9 60.1 0 0-.062 1.698 1.44.9 60.1 0 0 1.498.8m1.944 3.891a1.5.94 78.4 0 0 .619-1.659 1.5.94 78.4 0 0-1.223-1.28 1.5.94 78.4 0 0-.619 1.658 1.5.94 78.4 0 0 1.223 1.28m-46.938 2.045a2.25.47 70.7 0 0-.3-2.28 2.25.47 70.7 0 0-1.188-1.968 2.25.47 70.7 0 0 .3 2.28 2.25.47 70.7 0 0 1.188 1.968" vector-effect="non-scaling-stroke"/><path stroke="gray" d="M143.592 250.207a2.12.47 72.1 0 0-.205-2.161 2.12.47 72.1 0 0-1.099-1.873 2.12.47 72.1 0 0 .205 2.161 2.12.47 72.1 0 0 1.099 1.873" vector-effect="non-scaling-stroke"/><path stroke="gray" d="M141.553 251.052a2.41.52 72.8 0 0-.216-2.456 2.41.52 72.8 0 0-1.21-2.148 2.41.52 72.8 0 0 .216 2.456 2.41.52 72.8 0 0 1.21 2.148m-3.353-3.472-1.15 4.26a1.1.11-74.6 0 0-.16.96q2.1 4.28 1.03-.56a1.06.27-46.4 0 1 .44-.78q1.25-1.44.13-3.93-.18-.38-.29.05m80.25 9.74a.97.88 25.4 0 0 1.24-.38q1.87-3.8 2.79-7.95.33-1.47-.71-.25c-.99 1.17-5.75 7.44-3.32 8.58M128.8 252l.17 4.75a1.36.67-83.3 0 0 .32.9c2.18 1.87.27-6.8.27-6.85q-.32-2.12-2.03-1.71a.93.71-4.1 0 0-.66.58l-.86 3.58a.61.59-79.7 0 0 .5.75q.35.04.68-.06a1.12.37-82.9 0 0 .42-.89q.14-.75.67-1.21.49-.43.52.16m5.857-2.653a.26.26 0 0 0-.322-.177l-.23.066a.26.26 0 0 0-.178.322l1.736 6.015a.26.26 0 0 0 .322.177l.23-.066a.26.26 0 0 0 .178-.322l-1.736-6.015m42.51 1.814a1.42 1.23 39.4 0 0-.316-1.851 1.42 1.23 39.4 0 0-1.878.049 1.42 1.23 39.4 0 0 .316 1.851 1.42 1.23 39.4 0 0 1.878-.049" vector-effect="non-scaling-stroke"/><path stroke="gray" d="M125.21 251.03c-3.03.25.03 6.55 1.04 7.72a.42.34 46.3 0 0 .57.07c.31-.32.22-.67-.06-1.02q-2.32-2.87-1.22-6.28a.38.34-82.2 0 0-.33-.49m7.65 3.28q-.11 1.1.56 1.38.52.21.43-.4l-.49-3.09q-.09-.59-.44-.12-.43.58-.2 1.28.18.53.14.95m59.44 4.34q2.2 1.13 3.85-.47a.73.68 42.1 0 0-.09-1.06q-2.53-2.01-3.99 1a.45.37 26.6 0 0 .23.53m-2.51 3.29c-1.69 1.29 4.37 5.31 4.04 1.89a.93.73 14 0 0-.51-.65l-2.55-1.22a1.08.68 33.5 0 0-.98-.02m22.3 7.3c-.17 6.46 6.16 8.51 11.65 10.55a.66.61-64.2 0 0 .77-.3l2.97-5.26a1.85.79-71.9 0 1 .63-.72q4.45-2.54-1.45-3.53a1.32.57-42.9 0 0-.87.31q-2.86 1.99-6.27 2.77a1.12.03 21 0 1-1-.35q-3.37-1.27-5.97-3.76-.44-.43-.46.29m8.95 12.89c-1.32.49-7.1 4.23-6.81 5.8q.43 2.37 2.06.59c1.32-1.45 6.13-5.55 5.6-6.24a.82.59-25.7 0 0-.85-.15m-107.131 36.736a1.23.86 56.5 0 0 .038-1.5 1.23.86 56.5 0 0-1.396-.552 1.23.86 56.5 0 0-.038 1.5 1.23.86 56.5 0 0 1.396.552M258.64 364.93l.4 5.07q.16 1.96.93.19c1.67-3.86 2.43-8.93 5.32-12 5.75-6.1-.66-9.48-5.12-12.25a.41.38 22.8 0 0-.6.22l-.4 1.69a1.14 1.13-7.4 0 1-.57.73q-7.72 4-9.44 12.65a1.55 1.18 42 0 0 .18.95c3.17 5.86 4.28-5.02 4.13-6.2q-.17-1.31 1.1-.6a1.98 1.96-75.2 0 1 1.01 1.76q-.16 6.39-5.64 7.97-.99.28-1.3 1.31a.45.41 12.3 0 0 .37.53l5.47.87a1.12 1.09 25.4 0 0 1-.34l2.55-2.7q.55-.59.61.15m10.17-4.18q-3.88 5.96-6.67 12.26c-.43.97-1.36 4.67 1.45 2.62 1.93-1.4 7.64-10.39 6.07-14.78q-.33-.9-.85-.1m-132.116 6.487a2.26.97 53.5 0 0-.564-2.394 2.26.97 53.5 0 0-2.124-1.24 2.26.97 53.5 0 0 .564 2.394 2.26.97 53.5 0 0 2.124 1.24m84.242 4.294a2.04 1.16 20.1 0 0-1.517-1.79 2.04 1.16 20.1 0 0-2.315.388 2.04 1.16 20.1 0 0 1.517 1.79 2.04 1.16 20.1 0 0 2.315-.388m-22.789 8.173a3.61 1.26 53.3 0 0-1.147-3.647 3.61 1.26 53.3 0 0-3.167-2.141 3.61 1.26 53.3 0 0 1.147 3.647 3.61 1.26 53.3 0 0 3.167 2.141m-6.337 3.336q1.58-.62 3.19.02.65.26.3-.59-1.35-3.32-4.55-4.98a1.49.86-30.1 0 0-1.01 0l-2.24.75a1.19.43 37.2 0 1-.87-.27c-1.16-.73-11.15-6-6.81-.8q5.81 6.95 10.57 11.36c4.67 4.32 8.09 7.64 13.97 3.9q1.76-1.11 1.65-2.81-.09-1.34-1.2-.59c-5.97 4-10.77.08-13.3-5.32a.52.48-23.2 0 1 .3-.67m-11.93 7.2a1.25 1.25-77.9 0 1-1.81 1.17q-13.49-6.77-24.43-12-.98-.47-1.03-.16a1.66 1.65 21 0 0 .75 1.67q19.19 12.11 39.4 17.26c1.89.48 4 .01 4.33-2.05a1.12 1.09 6.9 0 0-1.02-1.26l-11.25-.93q-1.04-.09-.37-.86 1.72-1.99-.28-3.99-3.81-3.83-7.32-8.03a1.61 1.04 65.5 0 0-.86-.55q-4.65-.76-8.51-3.52a1.27 1.26 56.5 0 0-1.01-.21c-3.78.82 13.36 12.06 13.41 13.46m-10.47 14.99c.34-.19 5.26-.05 2.06-1.51q-6.72-3.07-11.67-8.45c-2.54-2.76-4.5-4.1-7.79-5.04q-1.96-.56-1.31 1.37c1.72 5.12 13.86 16.28 18.32 18.62 1.63.85 12.44 5.13 13.26 3.12a.56.51 23.2 0 0-.31-.68c-4.32-1.97-9.34-3.04-12.64-6.78a.44.4 54.5 0 1 .08-.65m-93.49-.34c3.2 2.07 10.42.29 5.52-3.58a.53.5 36.3 0 1-.13-.7c.31-.44 6.49-6.61 5.17-7.06a1.1 1.04 33.8 0 0-1 .17q-5.33 4.27-9.83 9.43a1.18 1.15 36.9 0 0 .27 1.74m97.57-4.57c3.8 3.57 12.03 10.24 17.05 9.28q.59-.12.07-.42-10.97-6.41-20.62-14.68a1.24 1.12 59.1 0 0-.95-.29c-2.38.4 4.08 5.76 4.45 6.11m-31.75 3.93-.07-1.67a.53.44-12 0 0-.69-.36c-2.67.9-7.73 2.66-7.52 3.4a.91.57-2.2 0 0 .77.44c3.08.2 5.64-.13 8.47 1.39 2.54 1.37 4.85 2.94 7.64 3.62 5.03 1.23 10.51.65 14.82 3.63a.81.38 33.7 0 0 .91.14q.42-.74.01-1.42-.93-1.55-1.49-1.93-3.78-2.55-7.15-4.72c-2.26-1.46-4.01-3.94-6.81-5.29a.75.45 26.2 0 0-.86.07l-1.4 2.8a1.1.46 1.5 0 1-.88.34l-5.31.24a.7.41 87.5 0 1-.44-.68m-20.27-.1c.24.07 9.79 1.79 5.96-.83q-2.65-1.81-6.63-1.88a1.1.44 7.9 0 0-.77.19q-4.06 4.04.44 2.68a1.36.27-20.3 0 1 1-.16m-35.491 1.455a1.32.98 103.2 0 0 1.255-1.061 1.32.98 103.2 0 0-.653-1.51 1.32.98 103.2 0 0-1.255 1.062 1.32.98 103.2 0 0 .653 1.51m-9.629 7.184-4.32 8.76q-.58 1.17.58.62c3.61-1.71 7.71-5.01 4.21-9.4a.29.27 40.3 0 0-.47.02m37.09.49q-.35-.25-.75-.47-1.14-.63-.69.7l.82 2.42a.77.49-19.4 0 0 .89.21q2.06-.72 3.1-2.63.46-.86-.33-.56l-2.21.86a1.02.06 35.7 0 1-.83-.53m66.094 4.367a4.19.95 22.4 0 0-3.512-2.475 4.19.95 22.4 0 0-4.236-.719 4.19.95 22.4 0 0 3.512 2.475 4.19.95 22.4 0 0 4.236.719m-46.925-1.135a2.57 1.31 1.6 0 0-2.532-1.382 2.57 1.31 1.6 0 0-2.606 1.238 2.57 1.31 1.6 0 0 2.532 1.382 2.57 1.31 1.6 0 0 2.606-1.238m7.811 2.788q6.18 4.26 13.55 5.78a1.8 1.65-47.4 0 0 .96-.08c1.55-.57 2.56-1.18 4.31-.95 3.45.45 11.47 2.04 11.88 1.39a.51.4 22.4 0 0-.36-.63c-4.84-1.46-9.24-2.46-14.07-4.68q-8.2-3.76-15.09-4.22-6.73-.44-1.18 3.39m18.25 8.3c-7.61-2.94 3.71 5.81 4.21 6.34a1.93 1.63 70.9 0 0 .84.5q2.47.59 5.02.26c8.8-1.12-9.95-7.06-10.07-7.1m-10.15 16.8q3.76 1.52 6.52-1.38 0-.01.95-.31 2.2-.71 4.51-.42.8.1.37-.67-.68-1.23-2.02-1.83a1.34 1.2 2.6 0 1-.66-.65q-2.87-6.51-9.64-7.42c-3.67-.5-5.77-1.71-8.92-2.92a2.73 2.42 33.2 0 0-2.68.39q-2.17 1.94-2.77 4.79a1.22.39 40.7 0 0 .54.88c1.41 1.34 4.98 4.72 4.07 6.83a.76.68 15.4 0 1-.79.39q-3.6-.54-6.95.66a1.09.15-61.7 0 0-.55.76q-2.4 4.31-2.52 9.25a1.19.55-29.1 0 1-.54.74q-5.91 4.42.35 8.49a2.7 2.36 45 0 0 2.63.18c3.08-1.75 6.52-2.03 9.37-4.2q1.72-1.31 3.67-2.36a1.82 1.5-4.2 0 0 .7-.67q1.62-2.97 1.77-7.66.05-1.59 1.65-2.74a1 .94-51.1 0 1 .94-.13m128.04-9.614a1.76 1.11-6 0 0-1.866-.92 1.76 1.11-6 0 0-1.634 1.288 1.76 1.11-6 0 0 1.866.92 1.76 1.11-6 0 0 1.634-1.288m-183.244 4.93a1.22 1.02-15.4 0 0-1.447-.66 1.22 1.02-15.4 0 0-.905 1.308 1.22 1.02-15.4 0 0 1.447.66 1.22 1.02-15.4 0 0 .905-1.308M114.7 464q.17.19 1.92.99 3.24 1.48 2.81.09-.48-1.55-3.67-2.07-2.33-.38-1.06.99m10.53 2.75.55-1.99a1.11.93 34.7 0 0-.26-.95c-1.82-2.01-5.12 4.92-.17 7.2a.69.48 34.5 0 0 .61 0l.27-.19a.61.54 52.8 0 0 .06-.84q-.83-.99-1.08-2.22-.11-.55.02-1.01m100.5-313.13a.52.52 71.6 0 0 .72.37l1.7-.78a.52.52 60.4 0 0 .2-.78l-2.66-3.59a.52.52 68.2 0 0-.92.42l.96 4.36m-18.276 4.77a7.67 3.05 43.6 0 0-3.45-7.499 7.67 3.05 43.6 0 0-7.658-3.08 7.67 3.05 43.6 0 0 3.45 7.498 7.67 3.05 43.6 0 0 7.658 3.08m42.446-8.139q-3.14-2.36-2.59 1.53c.32 2.2.74 10.69 5.37 9.1q1.94-.66 1.84-2.72-.23-4.6-4.62-7.91m-60.44 8.43c4.87-2.48-1.56-6.35-5.19-3.25a.65.42-42 0 0-.21.78q1.84 1.84 4.37 2.63a1.55.98-41.2 0 0 1.03-.16m76.506 7.45a5.12 2.23 56.9 0 0-.928-5.508 5.12 2.23 56.9 0 0-4.664-3.071 5.12 2.23 56.9 0 0 .928 5.507 5.12 2.23 56.9 0 0 4.664 3.071m18.358 65.749a2.44.63 92.5 0 0 .735-2.41 2.44.63 92.5 0 0-.523-2.466 2.44.63 92.5 0 0-.735 2.41 2.44.63 92.5 0 0 .523 2.466m-1.65 7.952a3.18.64 65.8 0 0-.72-3.162 3.18.64 65.8 0 0-1.888-2.638 3.18.64 65.8 0 0 .72 3.162 3.18.64 65.8 0 0 1.888 2.638m21.288.284a2.02.83 58.6 0 0-.344-2.156 2.02.83 58.6 0 0-1.76-1.292 2.02.83 58.6 0 0 .344 2.156 2.02.83 58.6 0 0 1.76 1.292" vector-effect="non-scaling-stroke"/><path stroke="gray" d="M282.76 244.93c1.83-.26 1.17-2.42-.02-2.99a.53.42 15.3 0 0-.74.32v2.24a.68.47-5.1 0 0 .76.43M264.7 356.92c4.96-1.1-1.45-9.16-.04-4a.64.6 54.2 0 1-.06.48q-.96 1.57-1.26 2.48-.49 1.46 1.36 1.04m-4.85 3.17q.66-2.29-1.6-2.37a.55.42 76.7 0 0-.33.74l.71 1.74q.7 1.71 1.22-.11" vector-effect="non-scaling-stroke"/></g><path fill="#fff" d="M0 0h395v500H0V0Zm131.51 238.71q.8-2.17-1.72-1.46-2.53-3.04-5.01-.32a.82.59-37.2 0 0-.22.73q.13.4.58.13l.15.46c-1.04 1.07-2.05 1.96-2.34 3.54q-1.32 7.33-4.72 13.89-.41.8.46.48 2.28-.84 3.04-3.16.81-2.49 1.21-.24l1.1 6.23a1.34.56-35.9 0 1-.59.97l-4.04 3.46q-1.96 1.68.55.96c2.03-.58 5.48-3.05 6.03 1.07.63 4.61-7.44 15.64-10.53 19.13a.92.52-46.2 0 0-.24.94l2.56 3.21q.29.36-.09.38c-6.25.28-2.84 2.63-1.03 5.03a1.19.51 46.2 0 1 .31.83q-.22 1.15-1.18 1.57a1.01.75 54.2 0 1-1.01-.32l-2.74-3.01a.64.63 40 0 0-1.01.08q-2.37 3.89-3.74 8.22a.66.6-69.4 0 0 .31.77c1.02.46 3.01-4.36 4.57-4.84 2.11-.64 2.18 1.76 1.43 3.09q-1.97 3.49-4.55 6.56a1.8 1.79 68.7 0 0-.39.89c-.53 3.92-5.36 32.97-6.92 32.9a.6.43-82.5 0 1-.37-.68q.64-3.86 1.37-7.7c.25-1.29-.41-1.7-.89-.58q-1.77 4.09-2.45 8.58a1.4.66 88.5 0 1-.35.8q-3.32 2.85-3.92 7.24-.05.39-.38.84-1.87 2.6-2.38 5.88-.08.48.29.14 2.39-2.17 3.07.31a1.27 1.05-39.8 0 1-.17.92c-2.53 3.94-7.34 9.22-5.11 14.21a.61.61-30 0 1-.2.74c-1.99 1.46-2.88 2.38-3.13 5.09-.79 8.81-8.87 13.17-15.07 17.96-1.77 1.37-1.19 3.37 1.11 1.83 2.25-1.5 4.89-3.87 7.27-4.98q4.7-2.18.55 2.02-5.48 5.56-10.54 11.51c-3.13 3.67-4.91 13.18-10.22 12.97a1.24 1.21 23.8 0 0-.89.33q-3.81 3.57-3.97 8.75a1.99 1.6-33 0 1-.32.97l-4.85 7.44a1.71 1.23-39.6 0 0-.28 1.07q.48 3.06 3.17 4.66a1.07 1.01-66.2 0 0 1.5-.64c2.86-8.91 7.33-17.64 15.84-22.31 4.1-2.24-.1 5.58-.77 6.95-1.43 2.94.18 3.43 2.34 4.71a1.37 1.37 39.3 0 1 .22 2.19c-3.41 3.08-7.87 6.9-3.74 11.71.27.31.44.99.22 1.24a.92.5 30.7 0 1-.95-.04l-1.98-1.04a1.32.84 39.7 0 0-1-.13q-.73.3-.1 1.2c2.83 4.03 6.12 3.23 7.55-1.13q3.78-11.51 7.15-23.79a1.24 1.24-72 0 1 1.63-.83c6.3 2.42 7.05 10.56 8.05 16.23q.35 2.01-.54 3.7l-5.27 10.02a.85.43-63.1 0 1-.74.54l-2.72-1.06q-.86-.34-.65.21l1.23 3.32a.91.72 60.2 0 1-.14.91q-5.29 4.94-5.35 12.14-.01.41-.29.88c-3.37 5.76.66 10.67-3.57 15.36a.8.74 26.2 0 0 .48 1.24l2.83.62a.68.54-68.6 0 1 .28.92l-2.61 5.16a.93.89-76.1 0 0 .77 1.35l50.25-.36a1.45 1.36 24 0 0 .89-.31q5.1-4.08 10.35-7.97c5.19-3.85 9.97-9.18 14.32-12.64 13.61-10.83 21.55-18.3 30.17-29.96q2.04-2.76 4.46-3.7 9.57-3.71 16.65-11.02a.53.38 55.3 0 1 .69.25c7.52 13.21 15.67 26.21 22.26 39.9a.85.76 75.8 0 0 .71.48h1a.51.5 0 0 1 .51.5l.05 5.19a2.5 2.07 12.5 0 0 1.58 2.04c9.02 3.59 18.92 3.97 28.33 3.78a1.9 1.6 69.2 0 1 1.46.81l8.86 12.64a1.28.72-8.7 0 0 .96.36l45.26.2q1.44.01.59-1.29-7.73-11.94-13.25-25.01c-.15-.35-2.24-11.96-3.29-5.37q-.88 5.5-4.59 8.32c-4.04 3.08 3.68-10.91-4.05-3.01a.3.3-31.4 0 1-.5-.12c-1.8-5.59-5.27-10.01-6.95-15.46q-.4-1.3-1.7-3.21c-9.52-14.06 19.74-5.22 12.85-14.88a.86.84-50.3 0 1-.07-.85c3.5-7.28-9.33.98-10.35 1.49a1.47 1.14-44.5 0 1-.95.11q-7.69-2.17-14.99-5.43a1.22 1.07 8.3 0 1-.66-.77c-.56-2.59 4.98-1.66 6.83-1.35 6.32 1.07 16.99.66 18.09-7.28a.46.35-6.3 0 0-.58-.35q-10.76 2.72-21.94 2-.4-.02-.02-.27 8.21-5.41 18-4.5a1.59 1.01-47.9 0 0 .83-.23q.59-.35.38-1a1.09.2 11.9 0 0-.92-.38l-3.78-.89q-.85-.2-.26-.81l2.22-2.28a1.19.33-44.3 0 0 .56-.96l-1.31-2.94a.7.36-37.7 0 0-.86.16c-5.3 4.66-12.16 10.34-19.68 9.61-1.15-.11-1.14-.91 0-1.22 1.93-.53 4.33-1.51 5.33-3.36q2.23-4.15-1.59-1.82a1.1.53-37.4 0 1-.91.19c-.78-.39 5.31-13.82 5.22-5.88-.07 6.27 9.99-1.28 12.2-2.92.49-.37.95-1.24.32-1.63a1.2.71-31.8 0 0-.93.02c-1.19.5-8.73 4.22-5.51-1.49q2.92-5.17-2.04-8.91a.79.79-50.9 0 0-1.06.11q-3.68 4.11-7.62 7.89-2.79 2.69-3.8-.54a1.04.99-37.7 0 1 .13-.84l3.05-4.72q1.2-1.85-1.1-2.4c-5.12-1.21 4.19-7.82 5.67-8.92a1 .44-30.9 0 0 .49-.69q-.27-2.74 1.49-4.64a1.49.57 3.2 0 1 .97-.31c9.33-.54 1.64-3.58-.12-5.38a1.26 1.23-67.6 0 1-.35-.87q-.01-3.03.01-6.06c.01-2.04.96-4.08.57-6.43a1.2 1.16 60.1 0 1 .24-.94q.35-.44.93-.31a.89.82 24 0 0 .87-.3q.55-.7.04-1.88-2.95-6.76-9.69-6.98-1.23-.04-1.84-1.65a.77.71-32.5 0 1 .21-.8q1.8-1.64 4.68-5.62c3.75-5.16 5.82 8.63 6.23 10.49.22 1.02 1.13.15 1.26-.35 1.21-4.94 3.48-12.76 1.16-17.51a.92.87 51.4 0 1 .08-.94q1.8-2.36 1.19-5.45-.3-1.53-.88-.18-1.34 3.11-3.72 5.49a.98.88 38.6 0 0 .24 1.42q1.56 1.03 1.41 1.84a.64.34 14.8 0 1-.74.17l-1.74-.53a1.21.44-39.3 0 0-.89.31c-9.42 6.49-19.42 13.26-30.21 17.19q-7.25 2.65-14.21 6.04c-3.64 1.77-5.79 5.47-8.98 7.25q-21.39 11.97-45.24 5.58-.59-.15-.44.38c.27.94 1.51.95 1.33 2.24a.76.64-1.2 0 1-.63.56q-4.31.64-8.3-1.27a.9.63-83.8 0 0-.88 1l.17 3.01a.47.43 11.4 0 1-.66.4l-6.75-2.97a1.38 1.35-67.4 0 1-.7-1.76l1.14-2.91a.94.85-78.3 0 0-.75-1.28h-6.26a1.33.74-10.3 0 1-.92-.31c-1.8-2.09 3.34-.94 3.75-.79 1.66.62 2.44-.91.4-1.12-1.16-.13-4.8-.64-3.51-2.65 1.49-2.32 10.39-2.05 12.81-1.71q.4.06.88.4c1.72 1.23 2.91-.94 3.93-1.95a.48.45-38.2 0 1 .74.07q.54.94 1.41 1.59a.86.54-32.9 0 0 .76-.01l2.24-1.03a1.24.42 30 0 1 .97.19c4.92 2.31 10.76 2.45 15.84 4.03a1.49 1.45 43.8 0 0 .93-.01c1.77-.64 10.49-3.07 8.11-6.15a.82.55 54.5 0 0-.86-.32l-2.72 1.55a1.2.99-48.7 0 1-.81.13c-2.24-.58-.75-3.45.12-5.21a1.12.69-53.9 0 0 .07-.92q-.62-1.07-3.68.18a1.79 1.77 43.2 0 1-1.3.03c-3.66-1.31-6.87-1.83-11-.81q-4.71 1.16-9.57.96c-3.86-.16-6.56 1.31-9.89 2.78a1.85 1.79 35.4 0 1-.97.15q-8.53-1.09-14.4 5.09a1.04.67-37.7 0 0-.31.87q.1.31.42.54a.8.35-54.2 0 1-.19.86c-.22.29-3.95 7.83-3.82 3.83.21-6.36 4.19-9.64 7.86-14.46 1.02-1.33 3.14-8.4 3.42-8.4a.61.47-88.3 0 1 .46.64q-.17 3.06-1.22 5.96c-.41 1.15-.32 2.72 1.43 1.05q1.6-1.53 2.06-4.83a.66.63-89.2 0 1 .55-.56q9.74-1.29 19.31-3.33c8.14-1.73 13.59 1.97 20.3 6.42a.85.8 45.8 0 0 .87.04c5.15-3.06-9.16-9.66-12.78-11.24-5.94-2.6-14.6-4.34-22.71-6.77q-1.3-.38-.28-1.28c1.77-1.56 3.23-3.21 5.76-3.45 3.1-.29 6.67-.13 9.39-.61 8.24-1.45 14.58-5.65 21.18-10.52q.77-.57 3.66-1.94c3.33-1.59 4-5.05 5.5-7.2 3.21-4.6 7.21-8.13 12.33-7.96 4.77.16-8.35 10.4-9.14 11.12a1.14.62-33.9 0 0-.43.83q.25 1.51 1.81 1.75a1.52.98-49.1 0 0 .96-.28l6.32-4.45a2.86 2.24-45.2 0 1 2.72-.34q3.72 2.01 7.74.91a1.59 1.46-17.1 0 0 1.12-1.92q-.71-2.07-2.18-3.61a.49.43 33.6 0 0-.79.11q-.27.88-.14 1.82a.52.46-4.4 0 1-.51.53q-1.68.02-2.68-1.37a.76.6 50.2 0 1-.02-.86l2.16-2.35a1.37.47-41.9 0 0 .5-.89q-.37-4.79-3.87-1.69a1.02.93 64.5 0 1-1.56-.63q-.39-1.83-.26-3.76.2-3.15 2.81-.8c2.36 2.13 6.72 2.65 9.68 3.64a.86.82 31.6 0 0 .86-.18c4.75-4.62-6.28-8.98-2.66-10.29a1.34 1.28-38.4 0 1 1.09.1l3.96 2.35q2.14 1.26 3.5-.86c7.71-11.92 10.95-25.72 15.21-39.05.27-.85.94-1.61 1.51-2.28a.96.67-40 0 0 .23-.85l-1.53-3.7a.61.59 63.8 0 1 .24-.75c.81-.5 4.89-3.69 2.38-4.01a1.69.72-39.7 0 0-.98.29l-1.58.91a1.2.4 33.2 0 1-1.01-.27q-3.79-2.17-7.02.75a1.53 1.45 44.5 0 0 .08 2.23l2.54 2.22a.94.83-33.6 0 1-.39 1.47c-2.11.8-10.54 3.35-9.49-2 .45-2.33 3.49-3.72 5.5-4.72q1.61-.8.05-1.64-3.04-1.65-1.49-4.75.33-.65.74-.02l2.74 4.23a.92.58-22 0 0 .94.17q2.27-.72 3.52-2.73a1.02.72 47.3 0 0-.13-.98q-1.92-2.71-2.63-5.94a1.13.35 78.8 0 0-.52-.96l-1.43-.05a.62.37-79.4 0 1-.27-.74c3.74-14.72 7.51-29.81 8.11-45.19q.09-2.39-2.33-2.52l-36.25-1.9a1 .9-4.2 0 0-1.05 1.1l2.64 11.67a.73.52-2.9 0 0 .66.42l21.5 1.09a.64.57 86.7 0 1 .54.54q.94 6.03-.79 11.68-1.7 5.5-1.97 6.85c-2.42 11.88-6.17 23.55-10.42 37.17-2.2 7.05-4.23-2.11-5.55 1.05-9.15 21.89-23.51 48.1-42.23 64.2-4.55 3.91-10.97 7.1-16.36 10.76-1.73 1.17-10.88 11.12-12.24 9.64a.56.45-44.2 0 1 .09-.71q.64-.62.5-1.31a.51.47-12 0 0-.59-.35q-3.34.71-6.29 2.49a1.58 1.08-88.9 0 0-.57.8c-.96 3.12-2.91 5.67-3.43 8.62q-.59 3.44-.53 6.96.01.77.66.24l4-3.24a.83.42-36 0 1 1.01-.16q.24.5.23 1.11-.05 2.51-2.18 4.1c-6.35 4.73-6.2 9.13-8.31 16.08q-.1.34-.52.81-.95 1.08.17 3.23a1.44 1.19-26.7 0 1-.76 1.73q-3.65 1.8-3.13 6.03a.81.63 3.9 0 0 .64.57q2.99.57 1.01 2.62-7.56 7.87-13.4 15.13c-8.13 10.12-15.24 22.92-21.91 34.86q-.66 1.18-1-.13c-1.2-4.65-1.89-9.46 1.07-13.8q2.79-4.08 5.09-8.46c1.47-2.79 2.35-6.52 4-9.67q1.01-1.91 1.71-4.55c1.03-3.83 3.52-6.5 4.82-9.9 5.68-14.81 16.06-31.99 21.97-43.05q11.22-21.02 17.95-44.13a.96.95 19.9 0 1 1.31-.61q3.54 1.58 1.86-2.76-2.41-6.21-1.72-12.82a.53.46-82.1 0 1 .55-.48c1.46.26 2.49 12.51 4.46 2.07.13-.7-.16-1.51.18-2.29a.9.83 9.7 0 1 .75-.49c5.07-.3-2.24 9.97-3.13 11.63q-.65 1.18.69 1.03c3.92-.45 4.5-6.06 7.65-8.76q.5-.42.42.24-1.93 16.93-1.72 33.99a.36.32-10.4 0 0 .47.29c3.48-1.2 5.72-3.33 5.82-7.31q.32-12.99.65-25.98.02-1.03.94-.82a.62.41-81.4 0 1 .3.65q-.32 2.73 2.14 4.04a.54.41-62.5 0 0 .62-.29c.41-.8 1.44-3.25 2.77-2.3a1.27.85-82.4 0 1 .4.82c.65 6.25 4.8-3.99 5.02 1.45a1.97 1.61 63.1 0 1-.21.95l-1.07 1.94a.45.41-69.3 0 0 .26.66q1.64.26 3.06 1.16a.86.8 43.4 0 0 .92.01c.97-.68 3.6-2.73 2.45-4.13a.83.51 42.7 0 1-.2-.71q1.48-3.38 5.05-3.25a.74.72 2.4 0 0 .77-.69q.11-2.66-2.48-2.21-.98.16-.46-.73.51-.87 1.46-1.3a1.15.46 40.4 0 1 .92.31q.83.6 1.81.71a1.01.47-74.6 0 0 .67-.79l1.75-5.64q.22-.7.19-.86-.98-4.66 2.99-6.84a1.47 1.41-20.5 0 0 .74-1.54c-1.24-6.05.9-6.17 4.79-9.38a.83.68-34.9 0 0 .26-.92q-1.23-2.35.8-4.15a1.18.09-82.1 0 0 .23-1.04q.51-3.4 1.12-6.81c.96-5.36 3.51-10.18 4.4-16.1a2.65 2.24 24.9 0 0-1.07-2.31q-2.21-1.65-3.38-4.13a1.58.71-66.4 0 1-.01-1c1.19-4.71 3.66-10.3 3.09-16.03a1.15.72-86.4 0 0-.48-.88q-2.31-1.07-3.73 1a1.03.78 13.7 0 1-.8.35c-7.12-.13-14.29-1.97-19.34 4.54q-6.26 8.08-13.12 15.67c-1.64 1.81-1.75.52-1.27-1.28a4.27 3.83 78.6 0 1 1.13-1.92q6.19-5.79 11.02-12.75a.7.66-67.1 0 0-.4-1.07q-1.85-.34-2.76-1.95a.82.77 49 0 0-1.33-.14c-.75 1.05-4.09 8.07-4.23 8.05a.63.51-86.5 0 1-.46-.65c.2-5.8 1.63-11.12 5.31-15.73.82-1.02 4.23-4.86 4.07-5.96q-.07-.53-.5-.15-8.53 7.67-13.18 18.12c-.27.6-2.81 2.91-1.66-.16.94-2.52 4.08-6.04 5.67-8.41a1.04.76-44.1 0 0 .15-.89c-.96-2.24-8.37 12.44-8.82 12.26a.7.52-71.7 0 1-.26-.78q5.05-17.55 12.86-34.07.19-.41-.14-.43a.73.43-57.4 0 0-.47.24q-3.55 3.68-5.15 7.94c-1.51 4.01-5.95 18.82-8.8 20.89q-.42.3-.38-.22.84-11.66-2.89-22.62-1.79-5.27-1.9-7.76c-.62-13.99 13.63-25.07 25.71-29.61q15.57-5.85 32.38-3.34 1.03.15.35-.67-2.59-3.14-6.2-5.05a.81.56 26.5 0 1-.45-.82q.28-.71.27-1.47a1 .59 12.4 0 0-.72-.67c-.66-.2-7.45-.31-4.36-1.1 5.83-1.48 15 2.2 19.18 3.53a.77.43 18.3 0 0 .83-.16q.12-.3-.48-.65c-12.63-7.53-26.11-7.24-38.42.38q-6.79 4.2-13.56 8.43-1 .63-.98-.51.05-2.09-.73-4.02a.96.94-7.4 0 0-.76-.57l-3.26-.39a1.03.91 80.5 0 1-.78-.63c-1.91-4.58 8.5-1.81 10.72-5.55q1.12-1.89-1.18-1.84-1.96.04-3.71-.78a.86.83-72.7 0 1-.46-.91q.56-3.17 2.44-5.78a1.24.56 9.7 0 1 .99-.26q5.95.42 11.27-3.51 3.2-2.36 7.74-1.64a1.65 1.42-13.1 0 1 .92.48q3.26 3.6 7.21.57a1.22 1.1-52.6 0 1 1.09-.2q3.24 1.19 5.44 3.84.31.38.45-.25c.6-2.7-.8-5.81-1.55-8.4-2.89-10.02-5.21-33.89-19.41-34.85q-.46-.03-.17-.4c2.85-3.77-5.99-8.13-9.35-5.9a.82.74-41.6 0 1-.91-.01q-1.54-1.23-3.5-1a.51.44-16.8 0 0-.42.67q1.28 2.3-1 1.22a1.31.66 84.1 0 1-.52-.81c-.44-1.61-5.95-2.06-7.33-1.98a1.93.91-49.3 0 0-.94.42l-4.18 3.11a1.8.94-50 0 1-.92.38q-6.59.08-10.28 5.36a1.42.64-.8 0 1-.9.42c-5.84.88-7.07 7.5-8.44 11.97-.91 2.98.58 5.82-.07 8.22q-2.45 9 1.21 17.39c.8 1.83.56 3.24.14 5.04a1.12 1.03 10.2 0 0 .97 1.28l3.94.51a1.43.73-2.2 0 1 .91.42q2 2.84-.35 5.47a.58.58 38.2 0 1-.76.09l-2.23-1.52a.65.39 34.2 0 0-.76-.04q-.33.49.24 1.08 4.34 4.5 3.68 10.83a1.16.84 30 0 0 .38.85l7.99 7.54q1.83 1.73 0 3.63-8.42 8.76-16.43 16.61c-9.5 9.29-14.11 24.62-14.68 37.42-.27 6.03 1.58 12.98 2.4 19.43q.53 4.18 2.7-2.71.27-.85.9-1.48c.36-.36 1.21 1 1.06 1.76q-1.18 6.15-5.97 10.3c-.9.78-.63 1.12.64.75 5.28-1.53 11.14.2 16.56.53a1.12.88-10.4 0 1 .8.42q.63.94-1.08.57-4.29-.92-8.73-.96a.95.86-72.3 0 0-.76.44c-.92 1.48-3.92 1.99-1.46 4.1q1.36 1.16 1.61-.58.37-2.56 2.89-2.78a.8.19-6.8 0 1 .76.09l1.2 3.03a1.03.31-43.8 0 1-.46.81q-.79.83-1.88.55-.74-.19-.15-.77 1.79-1.77-.49-2.16a.98.36-70.3 0 0-.63.75l-.84 2.14a.8.59 34.5 0 0 .26.76q1.18 1.08-1.07 1.13Zm94.99-100.46c1.38 1.14 8.94 4.82 8.88.43a.55.53 88.9 0 0-.54-.54l-8.34.11q-1.64-2.56-3.23-.74a1.07.92-33.7 0 0-.25.9c.38 1.49 2.49-.13 3.48-.16Zm-15.84 11.62q-.78-1.79.63-.43 4.22 4.1 8.24 8.34c.5.53 3.93 3.29 2.16-.45-1.84-3.89-5.82-13.04-9.92-14.64q-1.21-.47-.45.49 3.21 4.12 5.45 8.81.34.72-.23.67c-1.23-.11-10.21-12.56-12.38-9.31a.77.7 44.3 0 0 .05.84q4.85 6.68 8.5 14.04c.4.8 2.04 2.01 2.49.56a1.23.95 41.7 0 0-.17-.91q-2.72-4.23-4.37-8.01Zm13.79-5.3q-1.83-1.98-1.58.69l1.24 13.48a1.51.63-87.6 0 0 .36.97c1.71 1.44 1.86-3.28 1.88-3.82a.62.57 87.9 0 1 .5-.59c3.13-.4 4.72 2.08 6.67 4.92.53.78 1.55 1.11 1.92.01a1.38 1.18 41.8 0 0-.14-1.03q-4.64-7.9-10.85-14.63Zm20.24 16.44c.73-1.63-4.47-2.08-5.17-2.1a.69.67-7.5 0 1-.64-.48c-.57-2.02-2.92-13.09-4.92-12.95a.53.41-8.2 0 0-.51.53l4.04 14.2a1.21.53 13.6 0 0 .76.58q2.78 1 5.74.67a.92.71 4.9 0 0 .7-.45Zm-35.537-1.563a9.9 5.15 40.1 0 0-4.256-10.316 9.9 5.15 40.1 0 0-10.89-2.438 9.9 5.15 40.1 0 0 4.256 10.316 9.9 5.15 40.1 0 0 10.89 2.438Zm42.157 3.803c10.86-.14 3.55-15.66-5.38-15.71a1 1 86.1 0 0-1 1.15q.99 6.8 2.12 13 .19 1.07 1.58 1.33 1.33.25 2.68.23Zm-60.66-2.09c-1.24-.83-.47-1.75.8-1.27q4.42 1.65 8.96 2.97c2.56.74 3.24-.82.71-1.84q-3.57-1.43-7.33-2.32a.68.68-74.5 0 1-.49-.87q.6-1.85-1.05-3.41-4.35-4.12-8.91-.8c-.93.68-2.74 1.45-3.35 2.67a.85.85 28.2 0 0 .34 1.12q7.41 4.18 13.68 9.34 1.06.88 1.75-.03a.71.62 46.3 0 0-.04-.82q-2.2-2.79-5.07-4.74Zm76.305 6.288a7.27 4.51 57.6 0 0-.087-8.555 7.27 4.51 57.6 0 0-7.704-3.721 7.27 4.51 57.6 0 0 .088 8.555 7.27 4.51 57.6 0 0 7.703 3.721Zm22.205 49.562-.18-3.5q-.14-2.71-1.51-2.51-1.54.23-2.79-.4a1.33.69 85.4 0 1-.52-.84q-.57-2.25-2.72-3.27-.47-.23-.2.23 3.83 6.41 1.96 13.72-.29 1.09.66 4.28.17.55-.32.32c-.66-.33-1.16-1.23-1.2-2.02q-.18-3.36-1.63-6.27c-.27-.55-1.41-1.22-1.65-.29a1.37.78 47.3 0 0 .21.91c.67 1.11 2.54 5 2.11 6.17q-.35.95-.8-.2c-.78-2-2.56-8.5-4.59-8.99a.76.72-64.9 0 0-.78.31c-1.82 2.57.45 6.72.91 9.36.68 3.89-1.22 5.66 1.3 9.7q1.06 1.71 2.33 4.24c3.17 6.36-1.43 6.63-1.12 11.73q.36 6.12.57 12.24a1.4.86 74.8 0 1-.27.91c-1.29 1.37-1.27-3.97-1.19-5.55q.03-.56-.19-1.06l-2.38-5.45a1.6.52-67.3 0 1 .09-1.09q1.37-4.52-2.7-7.07a.59.56-60 0 0-.81.24q-3.25 6.01-3.22 12.39.07 18.02 2.9 35.81.73 4.56 3.63 9.23c3.23 5.21 1.1-4.95 1.01-5.32a1.51 1.42 52.3 0 1 .09-.93c2.28-5 4.94-14.09 3.9-19.49-.87-4.5.44-9.3 1.61-13.63q.54-2.01 1.9-.44 10.26 11.89 19.82 24.61 2.41 3.21 3.53 5.48 8.78 17.83 16.01 36.33c1.47 3.78 3.31 8.26 4.98 10.93 6.1 9.77 10.39 20.21 16.23 30 3.91 6.56 3.21 13.26 3.1 20.29-.16 9.7 10.68 13.14 6.97 24.22-1.61 4.8-7.34 15.45-1.47 18.58a.55.55 21 0 0 .79-.35q2.61-10.72 6.58-20.38c.2-.5.85-.82.87.06.11 4.9-2.11 21.63 3.62 23.68a1.08 1.06-77.9 0 0 1.41-.93l1.21-13.95a3.33 2.1 80.5 0 1 .81-1.94q.77-.73 1.28-.77a.62.43 89 0 1 .46.64c-.08 4.74-2.16 16.34 5.13 16.39a.51.49-89.4 0 0 .5-.51q-.08-8.03-.32-16.07c-.17-5.34-1.71-10.73-2.27-16.31q-.24-2.44-1.35-4.7-4.2-8.62-5.73-18.11a2.05.95-87 0 0-.4-1q-2.19-2.55-2.88-5.86a1.74.51 41.3 0 0-.55-.87q-1.38-1.54-1.73-3.37c-1.73-9.36-3.74-20.53-4.74-32.1-.55-6.29-1.11-15.08-4.08-19.48-2.21-3.28-3.54-6.59-5.16-10.03-.3-.64-.31-3.37.81-1.12q.84 1.67 1.98 3.21.42.55.52.18c.13-.45-7.64-18.48-8.54-20.28q-.21-.42-.19-.95c.12-3.07-3.63-7.66-5.31-10.36a1.39 1.17 78.6 0 0-.74-.59c-5.57-1.61 6.51 16.82 7.51 18.33q.66.99.88 2.16.37 1.96-.21 2.14a.93.48 60.3 0 1-.77-.5c-3.24-4.96-5.88-9.89-10.49-13.76-4.53-3.81-7.49-11.94-9.43-17.42-1.13-3.22-2.74-5.34-4.52-8.1-2.98-4.6-3.98-8.94-4.48-14.16a.7.62-85.5 0 1 .79-.77l1.92.61a.36.35 5.6 0 0 .47-.37c-.8-6.84-6.98-1.94-8.74-6.94q-.2-.56-.51-.14-.29.38-.2.92a.91.39 78.6 0 1-.18.86q-.38.19-.95-.66a3.15 1.53 43 0 1-.59-1.53l-.07-1.91q-.02-.6.67.17 1.37 1.52 2.09-.59a1.26.3-66.8 0 0 .15-.87q-.59-2.03 1.13-2.6a1.04.46 48.9 0 1 .83.39c.09.1 5.19 4.17 3.55 1.95q-2.2-2.99-2.3-6.77-.04-1.67-1.2-2.88c-3.08-3.19-3.37-6.66-4.87-10.16-1.99-4.63-5.49-8.78-6.38-13.26-.83-4.14-1.63-11.4-5.88-13.44q-.46-.22-.38.28 1.63 10.17 1.85 20.47c.03 1.55-.67.37-.75.02q-1.17-5.1-2.31-6.59c-.89-1.18-1-.33-.77.35 1.79 5.42 2.68 11.87-.97 16.76q-.42.57-.45-.03Zm-159.21 14.38q-2.29-.43-4.37.67-1.54.82.16.95 1.74.14 3.07-.96a1 .8-52.3 0 1 .87-.21q.79.28.95.08a.68.29 14.6 0 0-.68-.53Zm180.17 2.69c1.59-4.15-4.02.22.06 2.44q.91.49.59-.28l-.52-1.24a1.36.56 59.5 0 1-.13-.92Zm-60.68 77.85q-1.11.28-1.44 1.31a1.82 1.49-13.5 0 1-.63.83c-1.14.81-18.98 15.31-15.07 17.77a.66.58-52.8 0 0 .79-.16c6.39-7.13 13.2-5.81 21.91-5.97q2.96-.05 2.01-2.72-1.48-4.16-3.42-8.14-1.97-4.04 1.67-5.27c1.28-.43 2.28.13 3.36.39a1.54 1.53 10.2 0 1 1.17 1.67q-.53 4.54 1.5 5.59a.45.42 18.3 0 0 .65-.3l.27-1.95q.2-1.35.8.05l1.63 3.8a1.79 1.72 5.5 0 0 .66.77c.82.53 6.33 4.9 8.14 3.47a.68.52 56.1 0 0 .05-.82l-2.19-3.56a.89.62-39.8 0 1 .26-.93q2.66-2.53-.84-3.66a1.32 1.19-1.1 0 1-.77-.67q-.52-1.2 2.03-1.21 1.17 0 .31-1.04l-1.46-1.76a1.13.96-61.1 0 1-.19-.93q.69-2.91-.12-5.73a.75.59-29.3 0 1 .29-.7l.71-.54a.89.24 45.8 0 0-.46-.83l-1.49-1.51a1.47.53-85.2 0 1-.27-1c-.17-5.46.06-10.44-1.25-16q-1.49-6.3-1.66-12.81c-.06-2.15 1.06-3.36.66-5.58q-1.26-6.98-2.01-14.07a1.05.32 85.7 0 0-.35-.91q-.89-.25-1.44.43a1.34.84 72.3 0 0-.21.83q.15 2.32-.31 3.42-2.25 5.29-1.71 11.03.04.43-.19 1-1.4 3.5-.75 7.23a1.88.88-55.2 0 1-.17.98c-2.49 6.2-2.3 13.09-2.82 19.68-.31 3.94-3.41 5.89-4.3 9.64q-.55 2.31-.99 4.69a.59.38 7.1 0 1-.62.3q-3.95-.46-1.24 2.57a.86.79-26.7 0 1-.5 1.32Zm3.178-22.37a1.5 1.27 76.6 0 0 .887-1.754 1.5 1.27 76.6 0 0-1.583-1.165 1.5 1.27 76.6 0 0-.887 1.753 1.5 1.27 76.6 0 0 1.583 1.165Zm-5.358.36q2.91 1.4 2.77-1.37a.68.64-7 0 0-.8-.59q-1.32.25-2.3 1.23a.58.39 31.5 0 0 .33.73Zm-65.88.16c-1.37-2.78-3.47.46-3.18 2.18a.39.38-20.6 0 0 .59.26l2.41-1.56a.73.62 61.1 0 0 .18-.88Zm23.06 20.87q2.37.68 1.19-1.36l-1.37-2.35a.96.83 70.9 0 0-.81-.47c-2.42.14-1.54 3.47.99 4.18Zm-10.24 6.57q14.61 3.52 29.6 2.17c3.74-.34 2.73-2.8.63-4.09-8.23-5.08-15.07-4.09-23.49-.96a1.55.79 34 0 1-1.04-.13q-4.41-1.93-6.1 2.83a.18.11 8.4 0 0 .18.15q.12.01.22.03Zm-.442 7.778a2.48 1.14 17.3 0 0-2.029-1.826 2.48 1.14 17.3 0 0-2.707.35 2.48 1.14 17.3 0 0 2.029 1.826 2.48 1.14 17.3 0 0 2.707-.35Zm3.682 11.262q10.35 1.86 12.95 2.42c1.12.24 1.51-.66.62-1.35-3.44-2.66-9.51-2.92-13.74-3.31a1.08.97 22.1 0 0-.86.31q-1.38 1.5 1.03 1.93Zm-.63 12.424a1.94 1.1 109.9 0 0 1.694-1.45 1.94 1.1 109.9 0 0-.374-2.198 1.94 1.1 109.9 0 0-1.694 1.45 1.94 1.1 109.9 0 0 .374 2.198Zm5.93 10.736q2.31.37 3.11-1.67a.93.36 37 0 0-.46-.75c-2.51-2.1.93-3.15 2.41-3.48a.62.37-13.2 0 0 .53-.51q-.06-.25-.6-.31-5.47-.56-7.66 4.16a2.02 1.58-89.3 0 1-.6.75c-1.51 1.04-6.08 2.17-4.09 4.82a.42.38-44.1 0 0 .63-.02q1.99-2.3 4.38-1.17c1.05.5 3.6 1.11 2.19-1.3q-.35-.61.16-.52Zm70.45 13.97c.16 4.44-2.9 5.77-5.64 8.41a.57.47-44.5 0 0-.08.75c.82.77 12.5-6.55 6.53-9.67a.56.55 12.6 0 0-.81.51Zm-226.7 27.04c-1.24 3.79 12.07 4.12 14.45-.05a.87.86-72.9 0 0-.68-1.29q-6.6-.51-13.06.82a1.02.7-1.6 0 0-.71.52Zm17.01.27a.46.42-54.3 0 0-.43.09c-4.13 3.72-7.44 9.29-10.08 12.57q-5.47 6.77-10.47 13.96a1.13.28-53.1 0 0-.39.92q.99 2.24.24 4.54-.57 1.74 1.1.9c4.6-2.3 5.27-5.9 7.86-9.17q5.4-6.81 11.37-13.12a3.13 2.94-25.4 0 0 .85-2.18q-.09-3.19 1.73-5.74a1.06.61 63 0 0 .04-.83q-.45-1.42-1.82-1.94Zm225.478 44.766a3.69 1.59 127.8 0 0 3.518-1.942 3.69 1.59 127.8 0 0 1.006-3.89 3.69 1.59 127.8 0 0-3.518 1.941 3.69 1.59 127.8 0 0-1.006 3.89Z"/><path d="M125.29 238.25q3.11-.58 6.22.46 2.25-.05 1.07-1.13a.8.59 34.5 0 1-.26-.76l.84-2.14a.98.36-70.3 0 1 .63-.75q2.28.39.49 2.16-.59.58.15.77 1.09.28 1.88-.55a1.03.31-43.8 0 0 .46-.81l-1.2-3.03a.8.19-6.8 0 0-.76-.09q-2.52.22-2.89 2.78-.25 1.74-1.61.58c-2.46-2.11.54-2.62 1.46-4.1a.95.86-72.3 0 1 .76-.44q4.44.04 8.73.96 1.71.37 1.08-.57a1.12.88-10.4 0 0-.8-.42c-5.42-.33-11.28-2.06-16.56-.53-1.27.37-1.54.03-.64-.75q4.79-4.15 5.97-10.3c.15-.76-.7-2.12-1.06-1.76q-.63.63-.9 1.48-2.17 6.89-2.7 2.71c-.82-6.45-2.67-13.4-2.4-19.43.57-12.8 5.18-28.13 14.68-37.42q8.01-7.85 16.43-16.61 1.83-1.9 0-3.63l-7.99-7.54a1.16.84 30 0 1-.38-.85q.66-6.33-3.68-10.83-.57-.59-.24-1.08a.65.39 34.2 0 1 .76.04l2.23 1.52a.58.58 38.2 0 0 .76-.09q2.35-2.63.35-5.47a1.43.73-2.2 0 0-.91-.42l-3.94-.51a1.12 1.03 10.2 0 1-.97-1.28c.42-1.8.66-3.21-.14-5.04q-3.66-8.39-1.21-17.39c.65-2.4-.84-5.24.07-8.22 1.37-4.47 2.6-11.09 8.44-11.97a1.42.64-.8 0 0 .9-.42q3.69-5.28 10.28-5.36a1.8.94-50 0 0 .92-.38l4.18-3.11a1.93.91-49.3 0 1 .94-.42c1.38-.08 6.89.37 7.33 1.98a1.31.66 84.1 0 0 .52.81q2.28 1.08 1-1.22a.51.44-16.8 0 1 .42-.67q1.96-.23 3.5 1a.82.74-41.6 0 0 .91.01c3.36-2.23 12.2 2.13 9.35 5.9q-.29.37.17.4c14.2.96 16.52 24.83 19.41 34.85.75 2.59 2.15 5.7 1.55 8.4q-.14.63-.45.25-2.2-2.65-5.44-3.84a1.22 1.1-52.6 0 0-1.09.2q-3.95 3.03-7.21-.57a1.65 1.42-13.1 0 0-.92-.48q-4.54-.72-7.74 1.64-5.32 3.93-11.27 3.51a1.24.56 9.7 0 0-.99.26q-1.88 2.61-2.44 5.78a.86.83-72.7 0 0 .46.91q1.75.82 3.71.78 2.3-.05 1.18 1.84c-2.22 3.74-12.63.97-10.72 5.55a1.03.91 80.5 0 0 .78.63l3.26.39a.96.94-7.4 0 1 .76.57q.78 1.93.73 4.02-.02 1.14.98.51 6.77-4.23 13.56-8.43c12.31-7.62 25.79-7.91 38.42-.38q.6.35.48.65a.77.43 18.3 0 1-.83.16c-4.18-1.33-13.35-5.01-19.18-3.53-3.09.79 3.7.9 4.36 1.1a1 .59 12.4 0 1 .72.67q.01.76-.27 1.47a.81.56 26.5 0 0 .45.82q3.61 1.91 6.2 5.05.68.82-.35.67-16.81-2.51-32.38 3.34c-12.08 4.54-26.33 15.62-25.71 29.61q.11 2.49 1.9 7.76 3.73 10.96 2.89 22.62-.04.52.38.22c2.85-2.07 7.29-16.88 8.8-20.89q1.6-4.26 5.15-7.94a.73.43-57.4 0 1 .47-.24q.33.02.14.43-7.81 16.52-12.86 34.07a.7.52-71.7 0 0 .26.78c.45.18 7.86-14.5 8.82-12.26a1.04.76-44.1 0 1-.15.89c-1.59 2.37-4.73 5.89-5.67 8.41-1.15 3.07 1.39.76 1.66.16q4.65-10.45 13.18-18.12.43-.38.5.15c.16 1.1-3.25 4.94-4.07 5.96-3.68 4.61-5.11 9.93-5.31 15.73a.63.51-86.5 0 0 .46.65c.14.02 3.48-7 4.23-8.05a.82.77 49 0 1 1.33.14q.91 1.61 2.76 1.95a.7.66-67.1 0 1 .4 1.07q-4.83 6.96-11.02 12.75a4.27 3.83 78.6 0 0-1.13 1.92c-.48 1.8-.37 3.09 1.27 1.28q6.86-7.59 13.12-15.67c5.05-6.51 12.22-4.67 19.34-4.54a1.03.78 13.7 0 0 .8-.35q1.42-2.07 3.73-1a1.15.72-86.4 0 1 .48.88c.57 5.73-1.9 11.32-3.09 16.03a1.58.71-66.4 0 0 .01 1q1.17 2.48 3.38 4.13a2.65 2.24 24.9 0 1 1.07 2.31c-.89 5.92-3.44 10.74-4.4 16.1q-.61 3.41-1.12 6.81a1.18.09-82.1 0 1-.23 1.04q-2.03 1.8-.8 4.15a.83.68-34.9 0 1-.26.92c-3.89 3.21-6.03 3.33-4.79 9.38a1.47 1.41-20.5 0 1-.74 1.54q-3.97 2.18-2.99 6.84.03.16-.19.86l-1.75 5.64a1.01.47-74.6 0 1-.67.79q-.98-.11-1.81-.71a1.15.46 40.4 0 0-.92-.31q-.95.43-1.46 1.3-.52.89.46.73 2.59-.45 2.48 2.21a.74.72 2.4 0 1-.77.69q-3.57-.13-5.05 3.25a.83.51 42.7 0 0 .2.71c1.15 1.4-1.48 3.45-2.45 4.13a.86.8 43.4 0 1-.92-.01q-1.42-.9-3.06-1.16a.45.41-69.3 0 1-.26-.66l1.07-1.94a1.97 1.61 63.1 0 0 .21-.95c-.22-5.44-4.37 4.8-5.02-1.45a1.27.85-82.4 0 0-.4-.82c-1.33-.95-2.36 1.5-2.77 2.3a.54.41-62.5 0 1-.62.29q-2.46-1.31-2.14-4.04a.62.41-81.4 0 0-.3-.65q-.92-.21-.94.82-.33 12.99-.65 25.98c-.1 3.98-2.34 6.11-5.82 7.31a.36.32-10.4 0 1-.47-.29q-.21-17.06 1.72-33.99.08-.66-.42-.24c-3.15 2.7-3.73 8.31-7.65 8.76q-1.34.15-.69-1.03c.89-1.66 8.2-11.93 3.13-11.63a.9.83 9.7 0 0-.75.49c-.34.78-.05 1.59-.18 2.29-1.97 10.44-3-1.81-4.46-2.07a.53.46-82.1 0 0-.55.48q-.69 6.61 1.72 12.82 1.68 4.34-1.86 2.76a.96.95 19.9 0 0-1.31.61q-6.73 23.11-17.95 44.13c-5.91 11.06-16.29 28.24-21.97 43.05-1.3 3.4-3.79 6.07-4.82 9.9q-.7 2.64-1.71 4.55c-1.65 3.15-2.53 6.88-4 9.67q-2.3 4.38-5.09 8.46c-2.96 4.34-2.27 9.15-1.07 13.8q.34 1.31 1 .13c6.67-11.94 13.78-24.74 21.91-34.86q5.84-7.26 13.4-15.13 1.98-2.05-1.01-2.62a.81.63 3.9 0 1-.64-.57q-.52-4.23 3.13-6.03a1.44 1.19-26.7 0 0 .76-1.73q-1.12-2.15-.17-3.23.42-.47.52-.81c2.11-6.95 1.96-11.35 8.31-16.08q2.13-1.59 2.18-4.1.01-.61-.23-1.11a.83.42-36 0 0-1.01.16l-4 3.24q-.65.53-.66-.24-.06-3.52.53-6.96c.52-2.95 2.47-5.5 3.43-8.62a1.58 1.08-88.9 0 1 .57-.8q2.95-1.78 6.29-2.49a.51.47-12 0 1 .59.35q.14.69-.5 1.31a.56.45-44.2 0 0-.09.71c1.36 1.48 10.51-8.47 12.24-9.64 5.39-3.66 11.81-6.85 16.36-10.76 18.72-16.1 33.08-42.31 42.23-64.2 1.32-3.16 3.35 6 5.55-1.05 4.25-13.62 8-25.29 10.42-37.17q.27-1.35 1.97-6.85 1.73-5.65.79-11.68a.64.57 86.7 0 0-.54-.54l-21.5-1.09a.73.52-2.9 0 1-.66-.42l-2.64-11.67a1 .9-4.2 0 1 1.05-1.1l36.25 1.9q2.42.13 2.33 2.52c-.6 15.38-4.37 30.47-8.11 45.19a.62.37-79.4 0 0 .27.74l1.43.05a1.13.35 78.8 0 1 .52.96q.71 3.23 2.63 5.94a1.02.72 47.3 0 1 .13.98q-1.25 2.01-3.52 2.73a.92.58-22 0 1-.94-.17l-2.74-4.23q-.41-.63-.74.02-1.55 3.1 1.49 4.75 1.56.84-.05 1.64c-2.01 1-5.05 2.39-5.5 4.72-1.05 5.35 7.38 2.8 9.49 2a.94.83-33.6 0 0 .39-1.47l-2.54-2.22a1.53 1.45 44.5 0 1-.08-2.23q3.23-2.92 7.02-.75a1.2.4 33.2 0 0 1.01.27l1.58-.91a1.69.72-39.7 0 1 .98-.29c2.51.32-1.57 3.51-2.38 4.01a.61.59 63.8 0 0-.24.75l1.53 3.7a.96.67-40 0 1-.23.85c-.57.67-1.24 1.43-1.51 2.28-4.26 13.33-7.5 27.13-15.21 39.05q-1.36 2.12-3.5.86l-3.96-2.35a1.34 1.28-38.4 0 0-1.09-.1c-3.62 1.31 7.41 5.67 2.66 10.29a.86.82 31.6 0 1-.86.18c-2.96-.99-7.32-1.51-9.68-3.64q-2.61-2.35-2.81.8-.13 1.93.26 3.76a1.02.93 64.5 0 0 1.56.63q3.5-3.1 3.87 1.69a1.37.47-41.9 0 1-.5.89l-2.16 2.35a.76.6 50.2 0 0 .02.86q1 1.39 2.68 1.37a.52.46-4.4 0 0 .51-.53q-.13-.94.14-1.82a.49.43 33.6 0 1 .79-.11q1.47 1.54 2.18 3.61a1.59 1.46-17.1 0 1-1.12 1.92q-4.02 1.1-7.74-.91a2.86 2.24-45.2 0 0-2.72.34l-6.32 4.45a1.52.98-49.1 0 1-.96.28q-1.56-.24-1.81-1.75a1.14.62-33.9 0 1 .43-.83c.79-.72 13.91-10.96 9.14-11.12-5.12-.17-9.12 3.36-12.33 7.96-1.5 2.15-2.17 5.61-5.5 7.2q-2.89 1.37-3.66 1.94c-6.6 4.87-12.94 9.07-21.18 10.52-2.72.48-6.29.32-9.39.61-2.53.24-3.99 1.89-5.76 3.45q-1.02.9.28 1.28c8.11 2.43 16.77 4.17 22.71 6.77 3.62 1.58 17.93 8.18 12.78 11.24a.85.8 45.8 0 1-.87-.04c-6.71-4.45-12.16-8.15-20.3-6.42q-9.57 2.04-19.31 3.33a.66.63-89.2 0 0-.55.56q-.46 3.3-2.06 4.83c-1.75 1.67-1.84.1-1.43-1.05q1.05-2.9 1.22-5.96a.61.47-88.3 0 0-.46-.64c-.28 0-2.4 7.07-3.42 8.4-3.67 4.82-7.65 8.1-7.86 14.46-.13 4 3.6-3.54 3.82-3.83a.8.35-54.2 0 0 .19-.86q-.32-.23-.42-.54a1.04.67-37.7 0 1 .31-.87q5.87-6.18 14.4-5.09a1.85 1.79 35.4 0 0 .97-.15c3.33-1.47 6.03-2.94 9.89-2.78q4.86.2 9.57-.96c4.13-1.02 7.34-.5 11 .81a1.79 1.77 43.2 0 0 1.3-.03q3.06-1.25 3.68-.18a1.12.69-53.9 0 1-.07.92c-.87 1.76-2.36 4.63-.12 5.21a1.2.99-48.7 0 0 .81-.13l2.72-1.55a.82.55 54.5 0 1 .86.32c2.38 3.08-6.34 5.51-8.11 6.15a1.49 1.45 43.8 0 1-.93.01c-5.08-1.58-10.92-1.72-15.84-4.03a1.24.42 30 0 0-.97-.19l-2.24 1.03a.86.54-32.9 0 1-.76.01q-.87-.65-1.41-1.59a.48.45-38.2 0 0-.74-.07c-1.02 1.01-2.21 3.18-3.93 1.95q-.48-.34-.88-.4c-2.42-.34-11.32-.61-12.81 1.71-1.29 2.01 2.35 2.52 3.51 2.65 2.04.21 1.26 1.74-.4 1.12-.41-.15-5.55-1.3-3.75.79a1.33.74-10.3 0 0 .92.31h6.26a.94.85-78.3 0 1 .75 1.28l-1.14 2.91a1.38 1.35-67.4 0 0 .7 1.76l6.75 2.97a.47.43 11.4 0 0 .66-.4l-.17-3.01a.9.63-83.8 0 1 .88-1q3.99 1.91 8.3 1.27a.76.64-1.2 0 0 .63-.56c.18-1.29-1.06-1.3-1.33-2.24q-.15-.53.44-.38 23.85 6.39 45.24-5.58c3.19-1.78 5.34-5.48 8.98-7.25q6.96-3.39 14.21-6.04c10.79-3.93 20.79-10.7 30.21-17.19a1.21.44-39.3 0 1 .89-.31l1.74.53a.64.34 14.8 0 0 .74-.17q.15-.81-1.41-1.84a.98.88 38.6 0 1-.24-1.42q2.38-2.38 3.72-5.49.58-1.35.88.18.61 3.09-1.19 5.45a.92.87 51.4 0 0-.08.94c2.32 4.75.05 12.57-1.16 17.51-.13.5-1.04 1.37-1.26.35-.41-1.86-2.48-15.65-6.23-10.49q-2.88 3.98-4.68 5.62a.77.71-32.5 0 0-.21.8q.61 1.61 1.84 1.65 6.74.22 9.69 6.98.51 1.18-.04 1.88a.89.82 24 0 1-.87.3q-.58-.13-.93.31a1.2 1.16 60.1 0 0-.24.94c.39 2.35-.56 4.39-.57 6.43q-.02 3.03-.01 6.06a1.26 1.23-67.6 0 0 .35.87c1.76 1.8 9.45 4.84.12 5.38a1.49.57 3.2 0 0-.97.31q-1.76 1.9-1.49 4.64a1 .44-30.9 0 1-.49.69c-1.48 1.1-10.79 7.71-5.67 8.92q2.3.55 1.1 2.4l-3.05 4.72a1.04.99-37.7 0 0-.13.84q1.01 3.23 3.8.54 3.94-3.78 7.62-7.89a.79.79-50.9 0 1 1.06-.11q4.96 3.74 2.04 8.91c-3.22 5.71 4.32 1.99 5.51 1.49a1.2.71-31.8 0 1 .93-.02c.63.39.17 1.26-.32 1.63-2.21 1.64-12.27 9.19-12.2 2.92.09-7.94-6 5.49-5.22 5.88a1.1.53-37.4 0 0 .91-.19q3.82-2.33 1.59 1.82c-1 1.85-3.4 2.83-5.33 3.36-1.14.31-1.15 1.11 0 1.22 7.52.73 14.38-4.95 19.68-9.61a.7.36-37.7 0 1 .86-.16l1.31 2.94a1.19.33-44.3 0 1-.56.96l-2.22 2.28q-.59.61.26.81l3.78.89a1.09.2 11.9 0 1 .92.38q.21.65-.38 1a1.59 1.01-47.9 0 1-.83.23q-9.79-.91-18 4.5-.38.25.02.27 11.18.72 21.94-2a.46.35-6.3 0 1 .58.35c-1.1 7.94-11.77 8.35-18.09 7.28-1.85-.31-7.39-1.24-6.83 1.35a1.22 1.07 8.3 0 0 .66.77q7.3 3.26 14.99 5.43a1.47 1.14-44.5 0 0 .95-.11c1.02-.51 13.85-8.77 10.35-1.49a.86.84-50.3 0 0 .07.85c6.89 9.66-22.37.82-12.85 14.88q1.3 1.91 1.7 3.21c1.68 5.45 5.15 9.87 6.95 15.46a.3.3-31.4 0 0 .5.12c7.73-7.9.01 6.09 4.05 3.01q3.71-2.82 4.59-8.32c1.05-6.59 3.14 5.02 3.29 5.37q5.52 13.07 13.25 25.01.85 1.3-.59 1.29l-45.26-.2a1.28.72-8.7 0 1-.96-.36l-8.86-12.64a1.9 1.6 69.2 0 0-1.46-.81c-9.41.19-19.31-.19-28.33-3.78a2.5 2.07 12.5 0 1-1.58-2.04l-.05-5.19a.51.5 0 0 0-.51-.5h-1a.85.76 75.8 0 1-.71-.48c-6.59-13.69-14.74-26.69-22.26-39.9a.53.38 55.3 0 0-.69-.25q-7.08 7.31-16.65 11.02-2.42.94-4.46 3.7c-8.62 11.66-16.56 19.13-30.17 29.96-4.35 3.46-9.13 8.79-14.32 12.64q-5.25 3.89-10.35 7.97a1.45 1.36 24 0 1-.89.31l-50.25.36a.93.89-76.1 0 1-.77-1.35l2.61-5.16a.68.54-68.6 0 0-.28-.92l-2.83-.62a.8.74 26.2 0 1-.48-1.24c4.23-4.69.2-9.6 3.57-15.36q.28-.47.29-.88.06-7.2 5.35-12.14a.91.72 60.2 0 0 .14-.91l-1.23-3.32q-.21-.55.65-.21l2.72 1.06a.85.43-63.1 0 0 .74-.54l5.27-10.02q.89-1.69.54-3.7c-1-5.67-1.75-13.81-8.05-16.23a1.24 1.24-72 0 0-1.63.83q-3.37 12.28-7.15 23.79c-1.43 4.36-4.72 5.16-7.55 1.13q-.63-.9.1-1.2a1.32.84 39.7 0 1 1 .13l1.98 1.04a.92.5 30.7 0 0 .95.04c.22-.25.05-.93-.22-1.24-4.13-4.81.33-8.63 3.74-11.71a1.37 1.37 39.3 0 0-.22-2.19c-2.16-1.28-3.77-1.77-2.34-4.71.67-1.37 4.87-9.19.77-6.95-8.51 4.67-12.98 13.4-15.84 22.31a1.07 1.01-66.2 0 1-1.5.64q-2.69-1.6-3.17-4.66a1.71 1.23-39.6 0 1 .28-1.07l4.85-7.44a1.99 1.6-33 0 0 .32-.97q.16-5.18 3.97-8.75a1.24 1.21 23.8 0 1 .89-.33c5.31.21 7.09-9.3 10.22-12.97q5.06-5.95 10.54-11.51 4.15-4.2-.55-2.02c-2.38 1.11-5.02 3.48-7.27 4.98-2.3 1.54-2.88-.46-1.11-1.83 6.2-4.79 14.28-9.15 15.07-17.96.25-2.71 1.14-3.63 3.13-5.09a.61.61-30 0 0 .2-.74c-2.23-4.99 2.58-10.27 5.11-14.21a1.27 1.05-39.8 0 0 .17-.92q-.68-2.48-3.07-.31-.37.34-.29-.14.51-3.28 2.38-5.88.33-.45.38-.84.6-4.39 3.92-7.24a1.4.66 88.5 0 0 .35-.8q.68-4.49 2.45-8.58c.48-1.12 1.14-.71.89.58q-.73 3.84-1.37 7.7a.6.43-82.5 0 0 .37.68c1.56.07 6.39-28.98 6.92-32.9a1.8 1.79 68.7 0 1 .39-.89q2.58-3.07 4.55-6.56c.75-1.33.68-3.73-1.43-3.09-1.56.48-3.55 5.3-4.57 4.84a.66.6-69.4 0 1-.31-.77q1.37-4.33 3.74-8.22a.64.63 40 0 1 1.01-.08l2.74 3.01a1.01.75 54.2 0 0 1.01.32q.96-.42 1.18-1.57a1.19.51 46.2 0 0-.31-.83c-1.81-2.4-5.22-4.75 1.03-5.03q.38-.02.09-.38l-2.56-3.21a.92.52-46.2 0 1 .24-.94c3.09-3.49 11.16-14.52 10.53-19.13-.55-4.12-4-1.65-6.03-1.07q-2.51.72-.55-.96l4.04-3.46a1.34.56-35.9 0 0 .59-.97l-1.1-6.23q-.4-2.25-1.21.24-.76 2.32-3.04 3.16-.87.32-.46-.48 3.4-6.56 4.72-13.89c.29-1.58 1.3-2.47 2.34-3.54Zm39.94-169.31q-.56 1.38.9 1.07c2.71-.58.64-4.86-.9-1.07Zm-16.65 38.22q-1.26-.56-2.02.39a.58.55 28.6 0 0 .28.88q1.9.66 3.33 2.15a.62.61 51.9 0 0 .77.1q.26-.16.24-.36-.27-2.13-2.6-3.16Zm11.179 28.48a2.1 1.25 91.4 0 0 1.3-2.07 2.1 1.25 91.4 0 0-1.198-2.13 2.1 1.25 91.4 0 0-1.3 2.07 2.1 1.25 91.4 0 0 1.198 2.13Zm79.701 47.39c-6.95.02-14.18-.68-21.21-1.03a1.14.58-2.9 0 1-.91-.41q-1.72-3.71-1.82-7.84a.47.45-89.5 0 1 .48-.49l33.5 1.99a.54.47 4.1 0 1 .5.5q-1.07 14.61-3.65 29.02a.44.33 90 0 0 .4.53c1.73-.51 3.89-27.2 4-29.84a1.79 1.62 3 0 0-1.68-1.69l-34.32-2.07a.86.81 84.1 0 0-.82 1.07l2.27 9.26a1.81 1.48-4.1 0 0 1.62 1.14l20.43.9a1.46 1.44-88 0 1 1.38 1.5c-.09 2.84-.83 6.26-.66 8.88q.26 4.04 1.17.2c.69-2.94.45-7.24.56-10.35a1.23 1.23-89.3 0 0-1.24-1.27Zm-3.207 24.116a3.4.54 102 0 0 1.235-3.214 3.4.54 102 0 0 .179-3.438 3.4.54 102 0 0-1.235 3.214 3.4.54 102 0 0-.179 3.438Zm-46.903-1.566q-6.28 9.94-13.66 19.15-2.03 2.52-1.79 3.48.24.97.84.27c3.11-3.61 15.64-18.46 15.73-22.56q.05-2.2-1.12-.34Zm7.084 2.066a.77.77 0 0 0-.16-1.078l-.032-.024a.77.77 0 0 0-1.077.16l-9.039 12.17a.77.77 0 0 0 .16 1.078l.032.024a.77.77 0 0 0 1.077-.16l9.039-12.17ZM143.97 235l-.51-1.2a.65.45-35.1 0 0-.9.01l-1.61 1.39a.39.38-29.7 0 1-.62-.16l-.53-1.58a.46.36 61.5 0 0-.64-.28q-1.19 1.17-1.61 2.84a.5.37 10.3 0 0 .45.48l5.48.81a.59.47 15.1 0 1 .51.69q-1.1 2.11-1.24 4.51a1 .99-68.4 0 0 .35.82q1.42 1.22 3.41 1.17a.38.37 75.4 0 0 .31-.55l-1.4-2.67a1.42.48-66.4 0 1 .09-1.03l7.69-23.76a1.46 1.34 30.2 0 0-.46-1.48q-1.68-1.43-3.02-1.68a.58.51-77.9 0 0-.6.44l-4.94 21.18q-.08.37-.21.05Zm54.22-20.06q-11.82 13.41-29.89 30.56c-.65.62-2.51 2.9-.01 2.65a1.63 1.39-65.7 0 0 .87-.41c10.55-9.94 21.96-19.95 30.33-31.85a1.4 1.12-35.7 0 0 .25-.9q-.19-1.59-1.55-.05Zm-57.33 23.77q-2.55-1.16-5.37-.32-.95.27 3.77 1.47.54.14 1.08.22c1.88.28 1.77-.79.52-1.37Zm49.798 4.768a1.44.9 60.1 0 0 .062-1.697 1.44.9 60.1 0 0-1.498-.8 1.44.9 60.1 0 0-.062 1.698 1.44.9 60.1 0 0 1.498.8Zm1.944 3.891a1.5.94 78.4 0 0 .619-1.658 1.5.94 78.4 0 0-1.223-1.28 1.5.94 78.4 0 0-.619 1.658 1.5.94 78.4 0 0 1.223 1.28Zm-46.938 2.045a2.25.47 70.7 0 0-.3-2.28 2.25.47 70.7 0 0-1.188-1.968 2.25.47 70.7 0 0 .3 2.28 2.25.47 70.7 0 0 1.188 1.968Zm-2.072.793a2.12.47 72.1 0 0-.205-2.161 2.12.47 72.1 0 0-1.099-1.873 2.12.47 72.1 0 0 .205 2.161 2.12.47 72.1 0 0 1.099 1.873Zm-2.04.845a2.41.52 72.8 0 0-.215-2.456 2.41.52 72.8 0 0-1.21-2.148 2.41.52 72.8 0 0 .216 2.456 2.41.52 72.8 0 0 1.21 2.148Zm-3.352-3.472-1.15 4.26a1.1.11-74.6 0 0-.16.96q2.1 4.28 1.03-.56a1.06.27-46.4 0 1 .44-.78q1.25-1.44.13-3.93-.18-.38-.29.05Zm80.25 9.74a.97.88 25.4 0 0 1.24-.38q1.87-3.8 2.79-7.95.33-1.47-.71-.25c-.99 1.17-5.75 7.44-3.32 8.58ZM128.8 252l.17 4.75a1.36.67-83.3 0 0 .32.9c2.18 1.87.27-6.8.27-6.85q-.32-2.12-2.03-1.71a.93.71-4.1 0 0-.66.58l-.86 3.58a.61.59-79.7 0 0 .5.75q.35.04.68-.06a1.12.37-82.9 0 0 .42-.89q.14-.75.67-1.21.49-.43.52.16Zm5.857-2.653a.26.26 0 0 0-.322-.177l-.23.066a.26.26 0 0 0-.178.322l1.736 6.015a.26.26 0 0 0 .322.177l.23-.066a.26.26 0 0 0 .178-.322l-1.736-6.015Zm42.51 1.814a1.42 1.23 39.4 0 0-.316-1.851 1.42 1.23 39.4 0 0-1.878.049 1.42 1.23 39.4 0 0 .316 1.851 1.42 1.23 39.4 0 0 1.878-.049Zm-51.957-.131c-3.03.25.03 6.55 1.04 7.72a.42.34 46.3 0 0 .57.07c.31-.32.22-.67-.06-1.02q-2.32-2.87-1.22-6.28a.38.34-82.2 0 0-.33-.49Zm7.65 3.28q-.11 1.1.56 1.38.52.21.43-.4l-.49-3.09q-.09-.59-.44-.12-.43.58-.2 1.28.18.53.14.95Zm59.44 4.34q2.2 1.13 3.85-.47a.73.68 42.1 0 0-.09-1.06q-2.53-2.01-3.99 1a.45.37 26.6 0 0 .23.53Zm-2.51 3.29c-1.69 1.29 4.37 5.31 4.04 1.89a.93.73 14 0 0-.51-.65l-2.55-1.22a1.08.68 33.5 0 0-.98-.02Zm22.3 7.3c-.17 6.46 6.16 8.51 11.65 10.55a.66.61-64.2 0 0 .77-.3l2.97-5.26a1.85.79-71.9 0 1 .63-.72q4.45-2.54-1.45-3.53a1.32.57-42.9 0 0-.87.31q-2.86 1.99-6.27 2.77a1.12.03 21 0 1-1-.35q-3.37-1.27-5.97-3.76-.44-.43-.46.29Zm8.95 12.89c-1.32.49-7.1 4.23-6.81 5.8q.43 2.37 2.06.59c1.32-1.45 6.13-5.55 5.6-6.24a.82.59-25.7 0 0-.85-.15Zm-107.131 36.736a1.23.86 56.5 0 0 .038-1.5 1.23.86 56.5 0 0-1.396-.552 1.23.86 56.5 0 0-.038 1.5 1.23.86 56.5 0 0 1.396.552ZM258.64 364.93l.4 5.07q.16 1.96.93.19c1.67-3.86 2.43-8.93 5.32-12 5.75-6.1-.66-9.48-5.12-12.25a.41.38 22.8 0 0-.6.22l-.4 1.69a1.14 1.13-7.4 0 1-.57.73q-7.72 4-9.44 12.65a1.55 1.18 42 0 0 .18.95c3.17 5.86 4.28-5.02 4.13-6.2q-.17-1.31 1.1-.6a1.98 1.96-75.2 0 1 1.01 1.76q-.16 6.39-5.64 7.97-.99.28-1.3 1.31a.45.41 12.3 0 0 .37.53l5.47.87a1.12 1.09 25.4 0 0 1-.34l2.55-2.7q.55-.59.61.15Zm10.17-4.18q-3.88 5.96-6.67 12.26c-.43.97-1.36 4.67 1.45 2.62 1.93-1.4 7.64-10.39 6.07-14.78q-.33-.9-.85-.1Zm-132.116 6.487a2.26.97 53.5 0 0-.564-2.394 2.26.97 53.5 0 0-2.124-1.24 2.26.97 53.5 0 0 .564 2.394 2.26.97 53.5 0 0 2.124 1.24Zm84.242 4.294a2.04 1.16 20.1 0 0-1.517-1.79 2.04 1.16 20.1 0 0-2.315.388 2.04 1.16 20.1 0 0 1.517 1.79 2.04 1.16 20.1 0 0 2.315-.388Zm-22.789 8.173a3.61 1.26 53.3 0 0-1.147-3.647 3.61 1.26 53.3 0 0-3.167-2.141 3.61 1.26 53.3 0 0 1.147 3.647 3.61 1.26 53.3 0 0 3.167 2.141Zm-6.337 3.336q1.58-.62 3.19.02.65.26.3-.59-1.35-3.32-4.55-4.98a1.49.86-30.1 0 0-1.01 0l-2.24.75a1.19.43 37.2 0 1-.87-.27c-1.16-.73-11.15-6-6.81-.8q5.81 6.95 10.57 11.36c4.67 4.32 8.09 7.64 13.97 3.9q1.76-1.11 1.65-2.81-.09-1.34-1.2-.59c-5.97 4-10.77.08-13.3-5.32a.52.48-23.2 0 1 .3-.67Zm-11.93 7.2a1.25 1.25-77.9 0 1-1.81 1.17q-13.49-6.77-24.43-12-.98-.47-1.03-.16a1.66 1.65 21 0 0 .75 1.67q19.19 12.11 39.4 17.26c1.89.48 4 .01 4.33-2.05a1.12 1.09 6.9 0 0-1.02-1.26l-11.25-.93q-1.04-.09-.37-.86 1.72-1.99-.28-3.99-3.81-3.83-7.32-8.03a1.61 1.04 65.5 0 0-.86-.55q-4.65-.76-8.51-3.52a1.27 1.26 56.5 0 0-1.01-.21c-3.78.82 13.36 12.06 13.41 13.46Zm-10.47 14.99c.34-.19 5.26-.05 2.06-1.51q-6.72-3.07-11.67-8.45c-2.54-2.76-4.5-4.1-7.79-5.04q-1.96-.56-1.31 1.37c1.72 5.12 13.86 16.28 18.32 18.62 1.63.85 12.44 5.13 13.26 3.12a.56.51 23.2 0 0-.31-.68c-4.32-1.97-9.34-3.04-12.64-6.78a.44.4 54.5 0 1 .08-.65Zm-93.49-.34c3.2 2.07 10.42.29 5.52-3.58a.53.5 36.3 0 1-.13-.7c.31-.44 6.49-6.61 5.17-7.06a1.1 1.04 33.8 0 0-1 .17q-5.33 4.27-9.83 9.43a1.18 1.15 36.9 0 0 .27 1.74Zm97.57-4.57c3.8 3.57 12.03 10.24 17.05 9.28q.59-.12.07-.42-10.97-6.41-20.62-14.68a1.24 1.12 59.1 0 0-.95-.29c-2.38.4 4.08 5.76 4.45 6.11Zm-31.75 3.93-.07-1.67a.53.44-12 0 0-.69-.36c-2.67.9-7.73 2.66-7.52 3.4a.91.57-2.2 0 0 .77.44c3.08.2 5.64-.13 8.47 1.39 2.54 1.37 4.85 2.94 7.64 3.62 5.03 1.23 10.51.65 14.82 3.63a.81.38 33.7 0 0 .91.14q.42-.74.01-1.42-.93-1.55-1.49-1.93-3.78-2.55-7.15-4.72c-2.26-1.46-4.01-3.94-6.81-5.29a.75.45 26.2 0 0-.86.07l-1.4 2.8a1.1.46 1.5 0 1-.88.34l-5.31.24a.7.41 87.5 0 1-.44-.68Zm-20.27-.1c.24.07 9.79 1.79 5.96-.83q-2.65-1.81-6.63-1.88a1.1.44 7.9 0 0-.77.19q-4.06 4.04.44 2.68a1.36.27-20.3 0 1 1-.16Zm-35.491 1.455a1.32.98 103.2 0 0 1.255-1.061 1.32.98 103.2 0 0-.653-1.51 1.32.98 103.2 0 0-1.255 1.062 1.32.98 103.2 0 0 .653 1.51Zm-9.629 7.185-4.32 8.76q-.58 1.17.58.62c3.61-1.71 7.71-5.01 4.21-9.4a.29.27 40.3 0 0-.47.02Zm37.09.49q-.35-.25-.75-.47-1.14-.63-.69.7l.82 2.42a.77.49-19.4 0 0 .89.21q2.06-.72 3.1-2.63.46-.86-.33-.56l-2.21.86a1.02.06 35.7 0 1-.83-.53Zm66.094 4.367a4.19.95 22.4 0 0-3.512-2.475 4.19.95 22.4 0 0-4.236-.719 4.19.95 22.4 0 0 3.512 2.475 4.19.95 22.4 0 0 4.236.719Zm-46.925-1.135a2.57 1.31 1.6 0 0-2.532-1.382 2.57 1.31 1.6 0 0-2.606 1.238 2.57 1.31 1.6 0 0 2.532 1.382 2.57 1.31 1.6 0 0 2.606-1.238Zm7.811 2.788q6.18 4.26 13.55 5.78a1.8 1.65-47.4 0 0 .96-.08c1.55-.57 2.56-1.18 4.31-.95 3.45.45 11.47 2.04 11.88 1.39a.51.4 22.4 0 0-.36-.63c-4.84-1.46-9.24-2.46-14.07-4.68q-8.2-3.76-15.09-4.22-6.73-.44-1.18 3.39Zm18.25 8.3c-7.61-2.94 3.71 5.81 4.21 6.34a1.93 1.63 70.9 0 0 .84.5q2.47.59 5.02.26c8.8-1.12-9.95-7.06-10.07-7.1Zm-10.15 16.8q3.76 1.52 6.52-1.38 0-.01.95-.31 2.2-.71 4.51-.42.8.1.37-.67-.68-1.23-2.02-1.83a1.34 1.2 2.6 0 1-.66-.65q-2.87-6.51-9.64-7.42c-3.67-.5-5.77-1.71-8.92-2.92a2.73 2.42 33.2 0 0-2.68.39q-2.17 1.94-2.77 4.79a1.22.39 40.7 0 0 .54.88c1.41 1.34 4.98 4.72 4.07 6.83a.76.68 15.4 0 1-.79.39q-3.6-.54-6.95.66a1.09.15-61.7 0 0-.55.76q-2.4 4.31-2.52 9.25a1.19.55-29.1 0 1-.54.74q-5.91 4.42.35 8.49a2.7 2.36 45 0 0 2.63.18c3.08-1.75 6.52-2.03 9.37-4.2q1.72-1.31 3.67-2.36a1.82 1.5-4.2 0 0 .7-.67q1.62-2.97 1.77-7.66.05-1.59 1.65-2.74a1 .94-51.1 0 1 .94-.13Zm128.04-9.614a1.76 1.11-6 0 0-1.866-.92 1.76 1.11-6 0 0-1.634 1.288 1.76 1.11-6 0 0 1.866.92 1.76 1.11-6 0 0 1.634-1.288Zm-183.244 4.93a1.22 1.02-15.4 0 0-1.447-.66 1.22 1.02-15.4 0 0-.905 1.308 1.22 1.02-15.4 0 0 1.447.66 1.22 1.02-15.4 0 0 .905-1.308ZM114.7 464q.17.19 1.92.99 3.24 1.48 2.81.09-.48-1.55-3.67-2.07-2.33-.38-1.06.99Zm10.53 2.75.55-1.99a1.11.93 34.7 0 0-.26-.95c-1.82-2.01-5.12 4.92-.17 7.2a.69.48 34.5 0 0 .61 0l.27-.19a.61.54 52.8 0 0 .06-.84q-.83-.99-1.08-2.22-.11-.55.02-1.01Z"/><path fill="#fff" d="M165.23 68.94c1.54-3.79 3.61.49.9 1.07q-1.46.31-.9-1.07Zm-16.65 38.22q2.33 1.03 2.6 3.16.02.2-.24.36a.62.61 51.9 0 1-.77-.1q-1.43-1.49-3.33-2.15a.58.55 28.6 0 1-.28-.88q.76-.95 2.02-.39Z"/><ellipse fill="#fff" rx="2.1" ry="1.25" transform="rotate(91.4 14.747 144.746)"/><path d="M226.5 138.25c-.99.03-3.1 1.65-3.48.16a1.07.92-33.7 0 1 .25-.9q1.59-1.82 3.23.74Zm0 0 8.34-.11a.55.53 88.9 0 1 .54.54c.06 4.39-7.5.71-8.88-.43Zm-15.84 11.62q1.65 3.78 4.37 8.01a1.23.95 41.7 0 1 .17.91c-.45 1.45-2.09.24-2.49-.56q-3.65-7.36-8.5-14.04a.77.7 44.3 0 1-.05-.84c2.17-3.25 11.15 9.2 12.38 9.31q.57.05.23-.67-2.24-4.69-5.45-8.81-.76-.96.45-.49c4.1 1.6 8.08 10.75 9.92 14.64 1.77 3.74-1.66.98-2.16.45q-4.02-4.24-8.24-8.34-1.41-1.36-.63.43Zm13.79-5.3q6.21 6.73 10.85 14.63a1.38 1.18 41.8 0 1 .14 1.03c-.37 1.1-1.39.77-1.92-.01-1.95-2.84-3.54-5.32-6.67-4.92a.62.57 87.9 0 0-.5.59c-.02.54-.17 5.26-1.88 3.82a1.51.63-87.6 0 1-.36-.97l-1.24-13.48q-.25-2.67 1.58-.69Zm1.28 9.05a.52.52 71.6 0 0 .72.37l1.7-.78a.52.52 60.4 0 0 .2-.78l-2.66-3.59a.52.52 68.2 0 0-.92.42l.96 4.36Zm13.79 5.29c.7.02 5.9.47 5.17 2.1a.92.71 4.9 0 1-.7.45q-2.96.33-5.74-.67a1.21.53 13.6 0 1-.76-.58l-4.04-14.2a.53.41-8.2 0 1 .51-.53c2-.14 4.35 10.93 4.92 12.95a.69.67-7.5 0 0 .64.48Z"/><path d="M209.153 159.447a9.9 5.15 40.1 0 1-10.89-2.438 9.9 5.15 40.1 0 1-4.256-10.316 9.9 5.15 40.1 0 1 10.89 2.438 9.9 5.15 40.1 0 1 4.256 10.316Zm-1.699-1.058a7.67 3.05 43.6 0 0-3.45-7.498 7.67 3.05 43.6 0 0-7.658-3.08 7.67 3.05 43.6 0 0 3.45 7.498 7.67 3.05 43.6 0 0 7.658 3.08Z"/><ellipse fill="#fff" rx="7.67" ry="3.05" transform="rotate(43.6 -90.439 328.943)"/><path d="M245.93 147.54c8.93.05 16.24 15.57 5.38 15.71q-1.35.02-2.68-.23-1.39-.26-1.58-1.33-1.13-6.2-2.12-13a1 1 86.1 0 1 1-1.15Zm3.97 2.71q-3.14-2.36-2.59 1.53c.32 2.2.74 10.69 5.37 9.1q1.94-.66 1.84-2.72-.23-4.6-4.62-7.91Z"/><path fill="#fff" d="m225.73 153.62-.96-4.36a.52.52 73.3 0 1 .92-.42l2.66 3.59a.52.52 60.3 0 1-.2.78l-1.7.78a.52.52 71.3 0 1-.72-.37Zm24.17-3.37q4.39 3.31 4.62 7.91.1 2.06-1.84 2.72c-4.63 1.59-5.05-6.9-5.37-9.1q-.55-3.89 2.59-1.53Z"/><path d="M190.65 161.16q2.87 1.95 5.07 4.74a.71.62 46.3 0 1 .04.82q-.69.91-1.75.03-6.27-5.16-13.68-9.34a.85.85 28.2 0 1-.34-1.12c.61-1.22 2.42-1.99 3.35-2.67q4.56-3.32 8.91.8 1.65 1.56 1.05 3.41a.68.68-74.5 0 0 .49.87q3.76.89 7.33 2.32c2.53 1.02 1.85 2.58-.71 1.84q-4.54-1.32-8.96-2.97c-1.27-.48-2.04.44-.8 1.27Zm-1.19-2.48c4.87-2.48-1.56-6.35-5.19-3.25a.65.42-42 0 0-.21.78q1.84 1.84 4.37 2.63a1.55.98-41.2 0 0 1.03-.16Z"/><path fill="#fff" d="M184.27 155.43c3.63-3.1 10.06.77 5.19 3.25a1.55.98-41.2 0 1-1.03.16q-2.53-.79-4.37-2.63a.65.42-42 0 1 .21-.78Z"/><path d="M266.955 167.448a7.27 4.51 57.6 0 1-7.703-3.721 7.27 4.51 57.6 0 1-.088-8.555 7.27 4.51 57.6 0 1 7.704 3.721 7.27 4.51 57.6 0 1 .087 8.555Zm-.989-1.319a5.12 2.23 56.9 0 0-.928-5.507 5.12 2.23 56.9 0 0-4.664-3.071 5.12 2.23 56.9 0 0 .928 5.507 5.12 2.23 56.9 0 0 4.664 3.071Z"/><ellipse fill="#fff" rx="5.12" ry="2.23" transform="rotate(56.9 -17.762 323.775)"/><path fill="#fff" d="M218.25 182c7.03.35 14.26 1.05 21.21 1.03a1.23 1.23-89.3 0 1 1.24 1.27c-.11 3.11.13 7.41-.56 10.35q-.91 3.84-1.17-.2c-.17-2.62.57-6.04.66-8.88a1.46 1.44-88 0 0-1.38-1.5l-20.43-.9a1.81 1.48-4.1 0 1-1.62-1.14l-2.27-9.26a.86.81 84.1 0 1 .82-1.07l34.32 2.07a1.79 1.62 3 0 1 1.68 1.69c-.11 2.64-2.27 29.33-4 29.84a.44.33 90 0 1-.4-.53q2.58-14.41 3.65-29.02a.54.47 4.1 0 0-.5-.5l-33.5-1.99a.47.45-89.5 0 0-.48.49q.1 4.13 1.82 7.84a1.14.58-2.9 0 0 .91.41Z"/><path d="M289.61 217.04c3.65-4.89 2.76-11.34.97-16.76-.23-.68-.12-1.53.77-.35q1.14 1.49 2.31 6.59c.08.35.78 1.53.75-.02q-.22-10.3-1.85-20.47-.08-.5.38-.28c4.25 2.04 5.05 9.3 5.88 13.44.89 4.48 4.39 8.63 6.38 13.26 1.5 3.5 1.79 6.97 4.87 10.16q1.16 1.21 1.2 2.88.1 3.78 2.3 6.77c1.64 2.22-3.46-1.85-3.55-1.95a1.04.46 48.9 0 0-.83-.39q-1.72.57-1.13 2.6a1.26.3-66.8 0 1-.15.87q-.72 2.11-2.09.59-.69-.77-.67-.17l.07 1.91a3.15 1.53 43 0 0 .59 1.53q.57.85.95.66a.91.39 78.6 0 0 .18-.86q-.09-.54.2-.92.31-.42.51.14c1.76 5 7.94.1 8.74 6.94a.36.35 5.6 0 1-.47.37l-1.92-.61a.7.62-85.5 0 0-.79.77c.5 5.22 1.5 9.56 4.48 14.16 1.78 2.76 3.39 4.88 4.52 8.1 1.94 5.48 4.9 13.61 9.43 17.42 4.61 3.87 7.25 8.8 10.49 13.76a.93.48 60.3 0 0 .77.5q.58-.18.21-2.14-.22-1.17-.88-2.16c-1-1.51-13.08-19.94-7.51-18.33a1.39 1.17 78.6 0 1 .74.59c1.68 2.7 5.43 7.29 5.31 10.36q-.02.53.19.95c.9 1.8 8.67 19.83 8.54 20.28q-.1.37-.52-.18-1.14-1.54-1.98-3.21c-1.12-2.25-1.11.48-.81 1.12 1.62 3.44 2.95 6.75 5.16 10.03 2.97 4.4 3.53 13.19 4.08 19.48 1 11.57 3.01 22.74 4.74 32.1q.35 1.83 1.73 3.37a1.74.51 41.3 0 1 .55.87q.69 3.31 2.88 5.86a2.05.95-87 0 1 .4 1q1.53 9.49 5.73 18.11 1.11 2.26 1.35 4.7c.56 5.58 2.1 10.97 2.27 16.31q.24 8.04.32 16.07a.51.49-89.4 0 1-.5.51c-7.29-.05-5.21-11.65-5.13-16.39a.62.43 89 0 0-.46-.64q-.51.04-1.28.77a3.33 2.1 80.5 0 0-.81 1.94L366.01 433a1.08 1.06-77.9 0 1-1.41.93c-5.73-2.05-3.51-18.78-3.62-23.68-.02-.88-.67-.56-.87-.06q-3.97 9.66-6.58 20.38a.55.55 21 0 1-.79.35c-5.87-3.13-.14-13.78 1.47-18.58 3.71-11.08-7.13-14.52-6.97-24.22.11-7.03.81-13.73-3.1-20.29-5.84-9.79-10.13-20.23-16.23-30-1.67-2.67-3.51-7.15-4.98-10.93q-7.23-18.5-16.01-36.33-1.12-2.27-3.53-5.48-9.56-12.72-19.82-24.61-1.36-1.57-1.9.44c-1.17 4.33-2.48 9.13-1.61 13.63 1.04 5.4-1.62 14.49-3.9 19.49a1.51 1.42 52.3 0 0-.09.93c.09.37 2.22 10.53-1.01 5.32q-2.9-4.67-3.63-9.23-2.83-17.79-2.9-35.81-.03-6.38 3.22-12.39a.59.56-60 0 1 .81-.24q4.07 2.55 2.7 7.07a1.6.52-67.3 0 0-.09 1.09l2.38 5.45q.22.5.19 1.06c-.08 1.58-.1 6.92 1.19 5.55a1.4.86 74.8 0 0 .27-.91q-.21-6.12-.57-12.24c-.31-5.1 4.29-5.37 1.12-11.73q-1.27-2.53-2.33-4.24c-2.52-4.04-.62-5.81-1.3-9.7-.46-2.64-2.73-6.79-.91-9.36a.76.72-64.9 0 1 .78-.31c2.03.49 3.81 6.99 4.59 8.99q.45 1.15.8.2c.43-1.17-1.44-5.06-2.11-6.17a1.37.78 47.3 0 1-.21-.91c.24-.93 1.38-.26 1.65.29q1.45 2.91 1.63 6.27c.04.79.54 1.69 1.2 2.02q.49.23.32-.32-.95-3.19-.66-4.28 1.87-7.31-1.96-13.72-.27-.46.2-.23 2.15 1.02 2.72 3.27a1.33.69 85.4 0 0 .52.84q1.25.63 2.79.4 1.37-.2 1.51 2.51l.18 3.5q.03.6.45.03Zm-5.286 14.838a2.44.63 92.5 0 0 .735-2.41 2.44.63 92.5 0 0-.523-2.466 2.44.63 92.5 0 0-.735 2.41 2.44.63 92.5 0 0 .523 2.466Zm-1.65 7.953a3.18.64 65.8 0 0-.72-3.163 3.18.64 65.8 0 0-1.888-2.638 3.18.64 65.8 0 0 .72 3.162 3.18.64 65.8 0 0 1.888 2.638Zm21.288.283a2.02.83 58.6 0 0-.344-2.156 2.02.83 58.6 0 0-1.76-1.292 2.02.83 58.6 0 0 .344 2.156 2.02.83 58.6 0 0 1.76 1.292Zm-21.202 4.816c1.83-.26 1.17-2.42-.02-2.99a.53.42 15.3 0 0-.74.32v2.24a.68.47-5.1 0 0 .76.43Z"/><ellipse fill="#fff" rx="3.4" ry=".54" transform="rotate(102 35.955 197.853)"/><path fill="#fff" d="M189.35 205.58q1.17-1.86 1.12.34c-.09 4.1-12.62 18.95-15.73 22.56q-.6.7-.84-.27-.24-.96 1.79-3.48 7.38-9.21 13.66-19.15Z"/><rect width="1.58" height="16.7" x="-.79" y="-8.35" fill="#fff" rx=".77" transform="rotate(36.6 -226.78 395.819)"/><path fill="#fff" d="m144.18 234.95 4.94-21.18a.58.51-77.9 0 1 .6-.44q1.34.25 3.02 1.68a1.46 1.34 30.2 0 1 .46 1.48l-7.69 23.76a1.42.48-66.4 0 0-.09 1.03l1.4 2.67a.38.37 75.4 0 1-.31.55q-1.99.05-3.41-1.17a1 .99-68.4 0 1-.35-.82q.14-2.4 1.24-4.51a.59.47 15.1 0 0-.51-.69l-5.48-.81a.5.37 10.3 0 1-.45-.48q.42-1.67 1.61-2.84a.46.36 61.5 0 1 .64.28l.53 1.58a.39.38-29.7 0 0 .62.16l1.61-1.39a.65.45-35.1 0 1 .9-.01l.51 1.2q.13.32.21-.05Zm54.01-20.01q1.36-1.54 1.55.05a1.4 1.12-35.7 0 1-.25.9c-8.37 11.9-19.78 21.91-30.33 31.85a1.63 1.39-65.7 0 1-.87.41c-2.5.25-.64-2.03.01-2.65q18.07-17.15 29.89-30.56Z"/><ellipse fill="#fff" rx="2.44" ry=".63" transform="rotate(92.5 32.394 250.861)"/><path d="M130.63 231.92q-.16.2-.95-.08a1 .8-52.3 0 0-.87.21q-1.33 1.1-3.07.96-1.7-.13-.16-.95 2.08-1.1 4.37-.67a.68.29 14.6 0 1 .68.53Zm179.55 4.6c-4.08-2.22 1.53-6.59-.06-2.44a1.36.56 59.5 0 0 .13.92l.52 1.24q.32.77-.59.28Z"/><ellipse fill="#fff" rx="3.18" ry=".64" transform="rotate(65.8 -42.434 335.93)"/><path d="M129.79 237.25q-2.43-.22-4.65.54-.45.27-.58-.13a.82.59-37.2 0 1 .22-.73q2.48-2.72 5.01.32Z"/><ellipse fill="#fff" rx="2.02" ry=".83" transform="rotate(58.6 -60.948 389.085)"/><path fill="#7a7c79" d="M129.79 237.25q2.52-.71 1.72 1.46-3.11-1.04-6.22-.46l-.15-.46q2.22-.76 4.65-.54Z"/><path fill="#fff" d="M140.86 238.71c1.25.58 1.36 1.65-.52 1.37q-.54-.08-1.08-.22-4.72-1.2-3.77-1.47 2.82-.84 5.37.32Z"/><ellipse fill="#fff" rx="1.44" ry=".9" transform="rotate(60.1 -114.385 285.277)"/><path fill="#fff" d="M282.74 241.94c1.19.57 1.85 2.73.02 2.99a.68.47-5.1 0 1-.76-.43v-2.24a.53.42 15.3 0 1 .74-.32Z"/><ellipse fill="#fff" rx="1.5" ry=".94" transform="rotate(78.4 -54.602 240.842)"/><ellipse fill="#fff" rx="2.25" ry=".47" transform="rotate(70.7 -101.847 225.795)"/><ellipse fill="#fff" rx="2.12" ry=".47" transform="rotate(72.1 -99.019 222.285)"/><ellipse fill="#fff" rx="2.41" ry=".52" transform="rotate(72.8 -98.278 219.89)"/><path fill="#fff" d="M138.2 247.58q.11-.43.29-.05 1.12 2.49-.13 3.93a1.06.27-46.4 0 0-.44.78q1.07 4.84-1.03.56a1.1.11-74.6 0 1 .16-.96l1.15-4.26Zm80.25 9.74c-2.43-1.14 2.33-7.41 3.32-8.58q1.04-1.22.71.25-.92 4.15-2.79 7.95a.97.88 25.4 0 1-1.24.38Z"/><path d="M249.44 311.93a.86.79-26.7 0 0 .5-1.32q-2.71-3.03 1.24-2.57a.59.38 7.1 0 0 .62-.3q.44-2.38.99-4.69c.89-3.75 3.99-5.7 4.3-9.64.52-6.59.33-13.48 2.82-19.68a1.88.88-55.2 0 0 .17-.98q-.65-3.73.75-7.23.23-.57.19-1-.54-5.74 1.71-11.03.46-1.1.31-3.42a1.34.84 72.3 0 1 .21-.83q.55-.68 1.44-.43a1.05.32 85.7 0 1 .35.91q.75 7.09 2.01 14.07c.4 2.22-.72 3.43-.66 5.58q.17 6.51 1.66 12.81c1.31 5.56 1.08 10.54 1.25 16a1.47.53-85.2 0 0 .27 1l1.49 1.51a.89.24 45.8 0 1 .46.83l-.71.54a.75.59-29.3 0 0-.29.7q.81 2.82.12 5.73a1.13.96-61.1 0 0 .19.93l1.46 1.76q.86 1.04-.31 1.04-2.55.01-2.03 1.21a1.32 1.19-1.1 0 0 .77.67q3.5 1.13.84 3.66a.89.62-39.8 0 0-.26.93l2.19 3.56a.68.52 56.1 0 1-.05.82c-1.81 1.43-7.32-2.94-8.14-3.47a1.79 1.72 5.5 0 1-.66-.77l-1.63-3.8q-.6-1.4-.8-.05l-.27 1.95a.45.42 18.3 0 1-.65.3q-2.03-1.05-1.5-5.59a1.54 1.53 10.2 0 0-1.17-1.67c-1.08-.26-2.08-.82-3.36-.39q-3.64 1.23-1.67 5.27 1.94 3.98 3.42 8.14.95 2.67-2.01 2.72c-8.71.16-15.52-1.16-21.91 5.97a.66.58-52.8 0 1-.79.16c-3.91-2.46 13.93-16.96 15.07-17.77a1.82 1.49-13.5 0 0 .63-.83q.33-1.03 1.44-1.31Z"/><path fill="#fff" d="M128.28 251.84q-.53.46-.67 1.21a1.12.37-82.9 0 1-.42.89q-.33.1-.68.06a.61.59-79.7 0 1-.5-.75l.86-3.58a.93.71-4.1 0 1 .66-.58q1.71-.41 2.03 1.71c0 .05 1.91 8.72-.27 6.85a1.36.67-83.3 0 1-.32-.9l-.17-4.75q-.03-.59-.52-.16Z"/><rect width=".76" height="6.78" x="-.38" y="-3.39" fill="#fff" rx=".26" transform="rotate(-16.1 960.101 -351.6)"/><ellipse fill="#fff" rx="1.42" ry="1.23" transform="rotate(39.4 -261.44 371.002)"/><path fill="#fff" d="M126.25 258.75c-1.01-1.17-4.07-7.47-1.04-7.72a.38.34-82.2 0 1 .33.49q-1.1 3.41 1.22 6.28c.28.35.37.7.06 1.02a.42.34 46.3 0 1-.57-.07Zm6.47-5.39q-.23-.7.2-1.28.35-.47.44.12l.49 3.09q.09.61-.43.4-.67-.28-.56-1.38.04-.42-.14-.95Zm59.58 5.29a.45.37 26.6 0 1-.23-.53q1.46-3.01 3.99-1a.73.68 42.1 0 1 .09 1.06q-1.65 1.6-3.85.47Zm1.53 5.18c.33 3.42-5.73-.6-4.04-1.89a1.08.68 33.5 0 1 .98.02l2.55 1.22a.93.73 14 0 1 .51.65Zm29.91 15.96c-5.49-2.04-11.82-4.09-11.65-10.55q.02-.72.46-.29 2.6 2.49 5.97 3.76a1.12.03 21 0 0 1 .35q3.41-.78 6.27-2.77a1.32.57-42.9 0 1 .87-.31q5.9.99 1.45 3.53a1.85.79-71.9 0 0-.63.72l-2.97 5.26a.66.61-64.2 0 1-.77.3Zm-9.51 8.14c-.29-1.57 5.49-5.31 6.81-5.8a.82.59-25.7 0 1 .85.15c.53.69-4.28 4.79-5.6 6.24q-1.63 1.78-2.06-.59Z"/><ellipse rx="1.5" ry="1.27" transform="rotate(76.6 -56.264 303.765)"/><path d="M247.26 289.92a.58.39 31.5 0 1-.33-.73q.98-.98 2.3-1.23a.68.64-7 0 1 .8.59q.14 2.77-2.77 1.37Zm-69.06 2.34c-.29-1.72 1.81-4.96 3.18-2.18a.73.62 61.1 0 1-.18.88l-2.41 1.56a.39.38-20.6 0 1-.59-.26Zm26.24 18.69c-2.53-.71-3.41-4.04-.99-4.18a.96.83 70.9 0 1 .81.47l1.37 2.35q1.18 2.04-1.19 1.36Z"/><path d="M194.2 317.52q-.1-.02-.22-.03a.18.11 8.4 0 1-.18-.15q1.69-4.76 6.1-2.83a1.55.79 34 0 0 1.04.13c8.42-3.13 15.26-4.12 23.49.96 2.1 1.29 3.11 3.75-.63 4.09q-14.99 1.35-29.6-2.17Z"/><ellipse fill="#fff" rx="1.23" ry=".86" transform="rotate(56.5 -239.15 264.286)"/><ellipse rx="2.48" ry="1.14" transform="rotate(17.3 -971.035 791.32)"/><path d="M197.44 336.56q-2.41-.43-1.03-1.93a1.08.97 22.1 0 1 .86-.31c4.23.39 10.3.65 13.74 3.31.89.69.5 1.59-.62 1.35q-2.6-.56-12.95-2.42Z"/><ellipse rx="1.94" ry="1.1" transform="rotate(109.9 -23.033 242.843)"/><path fill="#fff" d="m258.03 364.78-2.55 2.7a1.12 1.09 25.4 0 1-1 .34l-5.47-.87a.45.41 12.3 0 1-.37-.53q.31-1.03 1.3-1.31 5.48-1.58 5.64-7.97a1.98 1.96-75.2 0 0-1.01-1.76q-1.27-.71-1.1.6c.15 1.18-.96 12.06-4.13 6.2a1.55 1.18 42 0 1-.18-.95q1.72-8.65 9.44-12.65a1.14 1.13-7.4 0 0 .57-.73l.4-1.69a.41.38 22.8 0 1 .6-.22c4.46 2.77 10.87 6.15 5.12 12.25-2.89 3.07-3.65 8.14-5.32 12q-.77 1.77-.93-.19l-.4-5.07q-.06-.74-.61-.15Zm6.67-7.86c4.96-1.1-1.45-9.16-.04-4a.64.6 54.2 0 1-.06.48q-.96 1.57-1.26 2.48-.49 1.46 1.36 1.04Zm-4.85 3.17q.66-2.29-1.6-2.37a.55.42 76.7 0 0-.33.74l.71 1.74q.7 1.71 1.22-.11Z"/><path d="M263.34 355.88q.3-.91 1.26-2.48a.64.6 54.2 0 0 .06-.48c-1.41-5.16 5 2.9.04 4q-1.85.42-1.36-1.04Zm-60.76 4.36c1.41 2.41-1.14 1.8-2.19 1.3q-2.39-1.13-4.38 1.17a.42.38-44.1 0 1-.63.02c-1.99-2.65 2.58-3.78 4.09-4.82a2.02 1.58-89.3 0 0 .6-.75q2.19-4.72 7.66-4.16.54.06.6.31a.62.37-13.2 0 1-.53.51c-1.48.33-4.92 1.38-2.41 3.48a.93.36 37 0 1 .46.75q-.8 2.04-3.11 1.67-.51-.09-.16.52Zm57.27-.15q-.52 1.82-1.22.11l-.71-1.74a.55.42 76.7 0 1 .33-.74q2.26.08 1.6 2.37Z"/><path fill="#fff" d="M268.81 360.75q.52-.8.85.1c1.57 4.39-4.14 13.38-6.07 14.78-2.81 2.05-1.88-1.65-1.45-2.62q2.79-6.3 6.67-12.26Z"/><ellipse fill="#fff" rx="2.26" ry=".97" transform="rotate(53.5 -294.815 316.975)"/><ellipse fill="#fff" rx="2.04" ry="1.16" transform="rotate(20.1 -936.691 803.323)"/><path d="M273.19 373.69a.56.55 12.6 0 1 .81-.51c5.97 3.12-5.71 10.44-6.53 9.67a.57.47-44.5 0 1 .08-.75c2.74-2.64 5.8-3.97 5.64-8.41Z"/><ellipse fill="#fff" rx="3.61" ry="1.26" transform="rotate(53.3 -277.422 383.67)"/><path fill="#fff" d="M191.81 383.04a.52.48-23.2 0 0-.3.67c2.53 5.4 7.33 9.32 13.3 5.32q1.11-.75 1.2.59.11 1.7-1.65 2.81c-5.88 3.74-9.3.42-13.97-3.9q-4.76-4.41-10.57-11.36c-4.34-5.2 5.65.07 6.81.8a1.19.43 37.2 0 0 .87.27l2.24-.75a1.49.86-30.1 0 1 1.01 0q3.2 1.66 4.55 4.98.35.85-.3.59-1.61-.64-3.19-.02Zm-11.93 7.2c-.05-1.4-17.19-12.64-13.41-13.46a1.27 1.26 56.5 0 1 1.01.21q3.86 2.76 8.51 3.52a1.61 1.04 65.5 0 1 .86.55q3.51 4.2 7.32 8.03 2 2 .28 3.99-.67.77.37.86l11.25.93a1.12 1.09 6.9 0 1 1.02 1.26c-.33 2.06-2.44 2.53-4.33 2.05q-20.21-5.15-39.4-17.26a1.66 1.65 21 0 1-.75-1.67q.05-.31 1.03.16 10.94 5.23 24.43 12a1.25 1.25-77.9 0 0 1.81-1.17Zm-10.55 15.64c3.3 3.74 8.32 4.81 12.64 6.78a.56.51 23.2 0 1 .31.68c-.82 2.01-11.63-2.27-13.26-3.12-4.46-2.34-16.6-13.5-18.32-18.62q-.65-1.93 1.31-1.37c3.29.94 5.25 2.28 7.79 5.04q4.95 5.38 11.67 8.45c3.2 1.46-1.72 1.32-2.06 1.51a.44.4 54.5 0 0-.08.65Zm-93.41-.99a1.18 1.15 36.9 0 1-.27-1.74q4.5-5.16 9.83-9.43a1.1 1.04 33.8 0 1 1-.17c1.32.45-4.86 6.62-5.17 7.06a.53.5 36.3 0 0 .13.7c4.9 3.87-2.32 5.65-5.52 3.58Zm97.57-4.57c-.37-.35-6.83-5.71-4.45-6.11a1.24 1.12 59.1 0 1 .95.29q9.65 8.27 20.62 14.68.52.3-.07.42c-5.02.96-13.25-5.71-17.05-9.28Z"/><path d="M60.94 400.68c-2.38 4.17-15.69 3.84-14.45.05a1.02.7-1.6 0 1 .71-.52q6.46-1.33 13.06-.82a.87.86-72.9 0 1 .68 1.29Zm2.56.32q1.37.52 1.82 1.94a1.06.61 63 0 1-.04.83q-1.82 2.55-1.73 5.74a3.13 2.94-25.4 0 1-.85 2.18q-5.97 6.31-11.37 13.12c-2.59 3.27-3.26 6.87-7.86 9.17q-1.67.84-1.1-.9.75-2.3-.24-4.54a1.13.28-53.1 0 1 .39-.92q5-7.19 10.47-13.96c2.64-3.28 5.95-8.85 10.08-12.57a.46.42-54.3 0 1 .43-.09Z"/><path fill="#fff" d="m142.18 404.93 5.31-.24a1.1.46 1.5 0 0 .88-.34l1.4-2.8a.75.45 26.2 0 1 .86-.07c2.8 1.35 4.55 3.83 6.81 5.29q3.37 2.17 7.15 4.72.56.38 1.49 1.93.41.68-.01 1.42a.81.38 33.7 0 1-.91-.14c-4.31-2.98-9.79-2.4-14.82-3.63-2.79-.68-5.1-2.25-7.64-3.62-2.83-1.52-5.39-1.19-8.47-1.39a.91.57-2.2 0 1-.77-.44c-.21-.74 4.85-2.5 7.52-3.4a.53.44-12 0 1 .69.36l.07 1.67a.7.41 87.5 0 0 .44.68Zm-21.71-.62q-4.5 1.36-.44-2.68a1.1.44 7.9 0 1 .77-.19q3.98.07 6.63 1.88c3.83 2.62-5.72.9-5.96.83a1.36.27-20.3 0 0-1 .16Z"/><ellipse fill="#fff" rx="1.32" ry=".98" transform="rotate(103.2 -117.09 236.352)"/><path fill="#fff" d="M76.35 412.79a.29.27 40.3 0 1 .47-.02c3.5 4.39-.6 7.69-4.21 9.4q-1.16.55-.58-.62l4.32-8.76Zm37.92 1.02 2.21-.86q.79-.3.33.56-1.04 1.91-3.1 2.63a.77.49-19.4 0 1-.89-.21l-.82-2.42q-.45-1.33.69-.7.4.22.75.47a1.02.06 35.7 0 0 .83.53Z"/><ellipse fill="#fff" rx="4.19" ry=".95" transform="rotate(22.4 -962.773 651.599)"/><ellipse fill="#fff" rx="2.57" ry="1.31" transform="rotate(1.6 -14846.67 4864.632)"/><path fill="#fff" d="M140.42 419.3q-5.55-3.83 1.18-3.39 6.89.46 15.09 4.22c4.83 2.22 9.23 3.22 14.07 4.68a.51.4 22.4 0 1 .36.63c-.41.65-8.43-.94-11.88-1.39-1.75-.23-2.76.38-4.31.95a1.8 1.65-47.4 0 1-.96.08q-7.37-1.52-13.55-5.78Zm22.46 14.64c-.5-.53-11.82-9.28-4.21-6.34.12.04 18.87 5.98 10.07 7.1q-2.55.33-5.02-.26a1.93 1.63 70.9 0 1-.84-.5Zm-15.3 10.59q-1.6 1.15-1.65 2.74-.15 4.69-1.77 7.66a1.82 1.5-4.2 0 1-.7.67q-1.95 1.05-3.67 2.36c-2.85 2.17-6.29 2.45-9.37 4.2a2.7 2.36 45 0 1-2.63-.18q-6.26-4.07-.35-8.49a1.19.55-29.1 0 0 .54-.74q.12-4.94 2.52-9.25a1.09.15-61.7 0 1 .55-.76q3.35-1.2 6.95-.66a.76.68 15.4 0 0 .79-.39c.91-2.11-2.66-5.49-4.07-6.83a1.22.39 40.7 0 1-.54-.88q.6-2.85 2.77-4.79a2.73 2.42 33.2 0 1 2.68-.39c3.15 1.21 5.25 2.42 8.92 2.92q6.77.91 9.64 7.42a1.34 1.2 2.6 0 0 .66.65q1.34.6 2.02 1.83.43.77-.37.67-2.31-.29-4.51.42-.95.3-.95.31-2.76 2.9-6.52 1.38a1 .94-51.1 0 0-.94.13Z"/><ellipse fill="#fff" rx="1.76" ry="1.11" transform="rotate(-6 4287.266 -2404.359)"/><ellipse fill="#fff" rx="1.22" ry="1.02" transform="rotate(-15.4 1673.373 -120.721)"/><ellipse rx="3.69" ry="1.59" transform="rotate(127.8 37.145 292.764)"/><path fill="#fff" d="M114.7 464q-1.27-1.37 1.06-.99 3.19.52 3.67 2.07.43 1.39-2.81-.09-1.75-.8-1.92-.99Zm10.51 3.76q.25 1.23 1.08 2.22a.61.54 52.8 0 1-.06.84l-.27.19a.69.48 34.5 0 1-.61 0c-4.95-2.28-1.65-9.21.17-7.2a1.11.93 34.7 0 1 .26.95l-.55 1.99q-.13.46-.02 1.01Z"/></svg>